<?xml version="1.0" standalone="no"?> <!DOCTYPE svg PUBLIC "-//W3C//DTD SVG 1.0//EN" "http://www.w3.org/TR/2001/REC-SVG-20010904/DTD/svg10.dtd" > <svg xmlns="http://www.w3.org/2000/svg" width="100%" height="100%">
<defs >
<font id="FuturaBT-Light" horiz-adv-x="848" ><font-face
    font-family="Futura Lt BT"
    units-per-em="2048"
    panose-1="2 11 4 2 2 2 4 2 3 3"
    ascent="1972"
    descent="-483"
    alphabetic="0" />
<missing-glyph horiz-adv-x="1228" d="M102 -362V1444H1126V-362H102ZM217 -248H1012V1329H217V-248Z" />
<glyph unicode=" " glyph-name="space" horiz-adv-x="589" />
<glyph unicode="!" glyph-name="exclam" horiz-adv-x="634" d="M256 303V1497H379V303H256ZM215 63Q215 106 244 135Q275 166 317 166Q358 166 389 135T420 63Q420 20 389 -10Q360 -39 317 -39Q272 -39 244 -11T215 63Z" />
<glyph unicode="&quot;" glyph-name="quotedbl" horiz-adv-x="550" d="M451 1434V881H365V1434H451ZM186 1434V881H100V1434H186Z" />
<glyph unicode="#" glyph-name="numbersign" horiz-adv-x="1574" d="M979 866H709L610 584H879L979 866ZM915 1454L741 956H1012L1188 1454H1298L1124 956H1446L1415 866H1092L991 584H1339L1309 494H958L784 0H672L848 494H578L399 0H289L463 494H129L160 584H496L596
866H236L264 956H629L805 1454H915Z" />
<glyph unicode="$" glyph-name="dollar" horiz-adv-x="1179" d="M555 1352Q463 1336 412 1278Q357 1217 357 1135T403 993Q448 936 555 883V1352ZM635 117Q746 133 807 209Q868 287 868 410Q868 512 813 582Q758 653 635 711V117ZM635 -168H555V6Q418 6 319 74Q217
144 160 274L274 332Q305 232 374 179T555 115V748Q373 836 299 922Q223 1010 223 1130Q223 1261 311 1354Q397 1442 555 1464V1565H635V1466Q733 1454 811 1409Q885 1366 928 1288L823 1231Q794 1286 748 1315Q693 1350 635 1352V846Q846 744 918 655Q996 559
995 420Q995 256 899 141Q807 30 635 2V-168Z" />
<glyph unicode="%" glyph-name="percent" horiz-adv-x="1495" d="M967 336Q967 203 1012 125Q1053 53 1141 53Q1225 53 1272 127Q1317 199 1317 336Q1317 471 1272 545Q1229 617 1141 616Q1055 616 1012 545Q967 471 967 336ZM1436 334Q1436 160 1358 59Q1282
-39 1141 -39Q1003 -39 926 59Q848 159 848 334Q848 510 926 610Q1003 708 1141 709Q1282 709 1358 610Q1436 510 1436 334ZM182 1245T182 1106T227 895T356 823Q442 823 487 897Q532 969 532 1106Q532 1241 487 1315Q444 1387 356 1386Q274 1386 227 1315Q182
1245 182 1106ZM651 1104Q651 928 573 827Q495 729 356 729Q218 729 141 827Q63 927 63 1103T141 1380Q218 1478 356 1479Q495 1479 573 1380Q651 1280 651 1104ZM270 -39L1112 1479H1221L379 -39H270Z" />
<glyph unicode="&amp;" glyph-name="ampersand" horiz-adv-x="1310" d="M895 301L512 768L446 721Q301 615 256 545Q213 477 213 387Q213 260 303 170T522 80Q610 80 702 135Q793 188 895 301ZM551 907L616 952Q696 1009 731 1065Q770 1126 770 1188Q770 1258
719 1307Q667 1356 590 1356Q508 1356 455 1309T401 1188Q401 1149 420 1106Q440 1057 469 1018L551 907ZM1145 0L963 215Q857 90 748 33Q635 -26 516 -27Q328 -27 207 88T86 381Q86 508 172 621Q258 735 449 854L393 928Q317 1032 301 1075Q278 1136 279 1196Q279
1311 369 1384T598 1458Q729 1458 807 1382Q887 1305 887 1186Q887 1086 823 1004Q753 914 616 829L977 383Q1038 461 1067 502Q1135 600 1151 625L1237 575Q1194 503 1139 426Q1090 354 1038 295L1290 0H1145Z" />
<glyph unicode="&apos;" glyph-name="quotesingle" horiz-adv-x="284" d="M186 1434V881H100V1434H186Z" />
<glyph unicode="(" glyph-name="parenleft" horiz-adv-x="557" d="M512 1483Q403 1262 352 1034Q299 796 299 551Q299 281 352 43Q405 -197 512 -393L422 -446Q302 -225 244 27Q185 283 184 555Q184 825 244 1073Q303 1317 422 1532L512 1483Z" />
<glyph unicode=")" glyph-name="parenright" horiz-adv-x="557" d="M47 1483L137 1532Q256 1317 315 1073Q374 825 375 555Q375 283 315 27Q257 -225 137 -446L47 -393Q158 -184 209 43Q262 281 262 551Q262 795 209 1032Q160 1256 47 1483Z" />
<glyph unicode="*" glyph-name="asterisk" horiz-adv-x="851" d="M162 928L119 1006L352 1128L119 1257L162 1335L389 1190L383 1464H471L463 1190L692 1333L735 1257L502 1128L735 1006L688 928L461 1067L469 801H383L391 1065L162 928Z" />
<glyph unicode="+" glyph-name="plus" horiz-adv-x="1705" d="M893 1221V651H1452V569H893V0H813V569H254V651H813V1221H893Z" />
<glyph unicode="," glyph-name="comma" horiz-adv-x="589" d="M324 254L469 193L205 -322L121 -283L324 254Z" />
<glyph unicode="-" glyph-name="hyphen" horiz-adv-x="710" d="M137 506H573V377H137V506Z" />
<glyph unicode="." glyph-name="period" horiz-adv-x="589" d="M193 84Q193 125 223 155T295 186T366 156T397 84T367 13T295 -18T224 12T193 84Z" />
<glyph unicode="/" glyph-name="slash" horiz-adv-x="823" d="M717 1497H825L109 -190H0L717 1497Z" />
<glyph unicode="0" glyph-name="zero" horiz-adv-x="1179" d="M236 717Q236 418 330 250Q426 80 592 80Q766 80 856 244T946 721Q946 1032 854 1196T588 1360Q420 1360 330 1190Q236 1014 236 717ZM588 -39Q363 -39 233 164Q102 371 102 719Q102 1069 233 1276Q362
1479 592 1479Q823 1479 950 1278Q1079 1075 1079 719Q1079 360 950 160Q821 -39 588 -39Z" />
<glyph unicode="1" glyph-name="one" horiz-adv-x="1179" d="M545 0V1331H281L344 1450H674V0H545Z" />
<glyph unicode="2" glyph-name="two" horiz-adv-x="1179" d="M1012 115V0H72L387 346L483 451Q874 877 874 1063Q874 1194 784 1278Q696 1360 551 1360T320 1268T233 1014H102V1028Q102 1239 227 1358Q354 1479 565 1479Q772 1479 895 1368T1018 1071Q1018 838
674 469L664 459L342 115H1012Z" />
<glyph unicode="3" glyph-name="three" horiz-adv-x="1179" d="M242 369Q250 228 332 154Q412 80 561 80Q717 80 801 162Q887 245 887 389Q887 534 799 618T557 702H522Q518 702 511 701T502 700V827Q510 827 517 826T527 824T534 823T543 823H567Q708 823 786
893T864 1087Q864 1210 787 1286T578 1362Q461 1362 387 1300Q317 1243 301 1126H158Q176 1292 287 1384Q400 1478 578 1479Q768 1479 884 1375T1001 1100Q1001 975 934 887Q864 797 748 760Q881 713 954 618Q1026 526 1026 389Q1026 194 899 78Q773 -39 561 -39Q352
-39 234 65T98 369H242Z" />
<glyph unicode="4" glyph-name="four" horiz-adv-x="1179" d="M721 485V1145L260 485H721ZM721 0V371H61L854 1499V485H1004V371H854V0H721Z" />
<glyph unicode="5" glyph-name="five" horiz-adv-x="1179" d="M350 883Q405 908 460 920T567 932Q776 932 903 805T1030 471Q1030 240 893 100Q754 -41 535 -41Q377 -41 268 29Q153 103 82 240L186 317Q249 194 336 137Q420 80 541 80Q701 80 797 184Q893 290
893 463Q893 626 795 721Q695 817 530 817Q434 817 361 791T227 711L186 715L373 1450H965V1337H465L350 883Z" />
<glyph unicode="6" glyph-name="six" horiz-adv-x="1179" d="M260 416Q260 262 350 168Q438 76 588 76Q733 76 823 174Q913 274 913 434Q913 579 823 674Q734 766 590 766Q445 766 353 668T260 416ZM391 805Q450 844 506 860Q565 878 625 879Q813 879 932 754T1051
428Q1051 217 918 90Q781 -41 569 -41Q364 -41 244 82Q123 207 123 408Q123 525 176 653Q227 776 410 1030L752 1507L860 1440L391 805Z" />
<glyph unicode="7" glyph-name="seven" horiz-adv-x="1179" d="M223 18L891 1337H184V1450H1083L346 -45L223 18Z" />
<glyph unicode="8" glyph-name="eight" horiz-adv-x="1179" d="M590 80Q741 80 829 166T918 399Q918 551 829 637T590 723Q436 723 350 637T264 399Q264 252 350 166T590 80ZM594 842Q717 842 793 911Q867 979 866 1100Q866 1219 791 1290T592 1362T393 1290Q319
1219 319 1100Q319 983 393 911Q465 842 594 842ZM412 788Q303 825 242 911T180 1120Q180 1276 295 1378Q408 1478 592 1479Q778 1479 891 1376Q1002 1274 1001 1104Q1001 993 942 911Q884 831 770 788Q901 755 979 649Q1055 547 1055 397Q1055 194 932 78T592
-39Q377 -39 250 78Q125 195 125 393Q125 545 201 647Q281 755 412 788Z" />
<glyph unicode="9" glyph-name="nine" horiz-adv-x="1179" d="M915 868T915 1022T825 1270T588 1364Q438 1364 350 1266Q262 1170 262 1006Q262 861 352 767T584 672Q731 672 823 770ZM782 633Q729 598 670 578Q621 562 551 561Q361 561 242 686T123 1010Q123
1221 256 1348Q393 1479 604 1479Q807 1479 930 1356T1053 1030Q1053 907 993 770Q942 649 764 408L414 -68L305 -2L782 633Z" />
<glyph unicode=":" glyph-name="colon" horiz-adv-x="634" d="M215 84Q215 127 244 156Q275 187 317 186Q358 186 389 156T420 84T389 13T317 -18Q274 -18 244 12Q215 41 215 84ZM215 760Q215 803 244 831Q275 862 317 862Q358 862 389 832T420 760Q420 717 389
686Q360 657 317 657Q272 657 244 686T215 760Z" />
<glyph unicode=";" glyph-name="semicolon" horiz-adv-x="634" d="M301 760Q301 803 330 831Q361 862 403 862Q444 862 475 832T506 760Q506 717 475 686Q446 657 403 657Q358 657 330 686T301 760ZM332 254L477 193L213 -322L129 -283L332 254Z" />
<glyph unicode="&lt;" glyph-name="less" horiz-adv-x="1705" d="M1442 1034L397 610L1442 186V98L264 580V641L1442 1124V1034Z" />
<glyph unicode="=" glyph-name="equal" horiz-adv-x="1705" d="M1452 469V387H254V469H1452ZM1452 831V752H254V831H1452Z" />
<glyph unicode="&gt;" glyph-name="greater" horiz-adv-x="1705" d="M1442 641V580L264 98V186L1309 610L264 1034V1124L1442 641Z" />
<glyph unicode="?" glyph-name="question" horiz-adv-x="1052" d="M401 63Q401 106 430 135Q461 166 504 166Q545 166 575 135T606 63Q606 20 575 -10Q546 -39 504 -39Q459 -39 430 -11T401 63ZM291 1096H172V1128Q172 1302 268 1399Q366 1497 535 1497Q689 1497
778 1407T868 1165Q868 1052 819 979Q768 901 625 809L553 764Q354 641 354 532Q354 458 399 416Q445 373 522 373Q608 373 659 420Q708 467 709 551V569H819V545Q819 410 739 338Q657 266 508 266Q387 266 305 342Q227 414 227 535Q227 623 272 688T444 838Q456
844 463 849T484 863T516 885Q743 1028 743 1157Q743 1253 684 1313Q627 1370 528 1370Q413 1370 352 1300Q291 1228 291 1102V1096Z" />
<glyph unicode="@" glyph-name="at" horiz-adv-x="2048" d="M1303 827L1364 956H1444L1307 403Q1303 389 1298 365T1292 338Q1286 310 1286 295Q1286 252 1317 228T1403 203Q1446 203 1503 223Q1552 239 1606 279Q1704 351 1767 485Q1828 617 1829 768Q1829 1042
1630 1208Q1429 1374 1104 1374Q934 1374 793 1325Q650 1276 535 1182Q379 1051 303 885Q225 713 225 510Q225 180 446 -12Q669 -207 1038 -207Q1192 -207 1362 -156Q1526 -107 1661 -14L1690 -59Q1545 -168 1383 -223T1042 -279Q852 -279 699 -234T422 -94Q268
23 195 174Q121 328 121 522Q121 680 172 829Q221 973 319 1094Q469 1274 664 1360Q869 1450 1114 1450Q1274 1450 1419 1407Q1558 1366 1667 1282Q1798 1182 1862 1055Q1928 924 1927 778Q1927 604 1864 469Q1798 328 1683 238Q1615 183 1538 156Q1456 127 1378
127Q1284 127 1235 164T1186 272Q1186 276 1190 305V311Q1141 223 1065 174Q991 127 899 127Q745 127 666 211T586 453Q586 684 721 840Q856 998 1047 997Q1142 997 1206 954Q1272 911 1303 827ZM1219 467L1282 721Q1262 819 1200 872Q1143 923 1049 924Q897 924
793 786Q691 651 690 446Q690 329 748 266Q807 200 907 201Q1018 201 1104 274Q1188 346 1219 467Z" />
<glyph unicode="A" glyph-name="A" horiz-adv-x="1222" d="M356 610H866L616 1247L356 610ZM-18 0L625 1522L1241 0H1096L909 496H311L117 0H-18Z" />
<glyph unicode="B" glyph-name="B" horiz-adv-x="1132" d="M315 813H481Q665 813 739 872Q815 933 815 1073Q815 1225 742 1286T481 1348H315V813ZM315 115H485Q628 115 683 127T778 168Q827 207 854 268T881 403Q881 489 850 557Q819 623 764 657Q727 677 674
688Q617 698 514 698H485H315V115ZM182 0V1464H436Q600 1464 678 1448Q750 1434 803 1393Q879 1336 913 1260Q952 1176 952 1083Q952 966 891 885Q828 801 723 776Q864 753 944 664Q1024 572 1024 430Q1024 328 993 248Q960 166 899 109Q838 50 745 25Q656 0 438
0H182Z" />
<glyph unicode="C" glyph-name="C" horiz-adv-x="1462" d="M1358 1196Q1256 1286 1135 1335Q1024 1380 895 1380Q612 1380 434 1200T256 731Q256 586 299 469Q340 356 432 264Q522 174 632 129T877 84Q1003 84 1122 127Q1239 170 1350 254V98Q1239 30 1122 -4Q1009
-39 883 -39Q721 -39 580 18Q428 79 330 178Q221 287 168 424Q113 565 113 731Q113 889 170 1036Q225 1179 332 1282Q434 1380 580 1440Q721 1497 883 1497Q1026 1497 1143 1458Q1266 1417 1360 1343L1358 1196Z" />
<glyph unicode="D" glyph-name="D" horiz-adv-x="1425" d="M315 115H502Q721 115 823 141Q921 166 985 227Q1079 315 1124 440Q1171 571 1171 733Q1171 897 1124 1028Q1079 1151 983 1239Q913 1302 811 1327Q700 1354 459 1354H434H315V115ZM182 0V1464H410Q715
1464 844 1434T1063 1331Q1186 1233 1249 1082T1313 731T1249 381Q1184 227 1065 135Q969 61 848 31Q725 0 455 0H410H182Z" />
<glyph unicode="E" glyph-name="E" horiz-adv-x="1050" d="M182 0V1464H907V1339H315V881H907V756H315V125H907V0H182Z" />
<glyph unicode="F" glyph-name="F" horiz-adv-x="1024" d="M182 0V1464H907V1339H315V881H885V756H315V0H182Z" />
<glyph unicode="G" glyph-name="G" horiz-adv-x="1671" d="M1382 1096Q1294 1233 1163 1304T870 1376Q598 1376 426 1192Q256 1010 256 715Q256 584 301 469Q346 352 434 262Q524 172 631 129Q744 84 870 84Q1114 84 1270 229Q1428 376 1430 608H924V723H1575V707Q1575
357 1384 160Q1191 -39 858 -39T319 172Q112 385 113 729Q113 885 166 1028Q217 1167 315 1272Q424 1387 555 1442Q688 1497 852 1497Q1075 1497 1235 1417Q1391 1339 1479 1180L1382 1096Z" />
<glyph unicode="H" glyph-name="H" horiz-adv-x="1425" d="M182 0V1464H315V870H1112V1464H1245V0H1112V756H315V0H182Z" />
<glyph unicode="I" glyph-name="I" horiz-adv-x="497" d="M182 0V1464H315V0H182Z" />
<glyph unicode="J" glyph-name="J" horiz-adv-x="763" d="M467 401V1464H600V315Q600 140 520 51Q440 -39 289 -39Q195 -39 125 0Q49 43 6 113L100 199Q141 144 188 115Q233 88 285 88Q383 88 426 158Q467 225 467 401Z" />
<glyph unicode="K" glyph-name="K" horiz-adv-x="1175" d="M182 0V1464H315V778L977 1464H1151L457 764L1184 0H991L315 743V0H182Z" />
<glyph unicode="L" glyph-name="L" horiz-adv-x="845" d="M182 0V1464H315V125H817V0H182Z" />
<glyph unicode="M" glyph-name="M" horiz-adv-x="1710" d="M850 -57L336 1118L225 0H88L287 1526L848 223L1430 1526L1618 0H1481L1372 1118L850 -57Z" />
<glyph unicode="N" glyph-name="N" horiz-adv-x="1525" d="M182 0V1526L1219 301V1464H1343V-43L307 1184V0H182Z" />
<glyph unicode="O" glyph-name="O" horiz-adv-x="1792" d="M895 80Q1028 80 1141 127Q1258 176 1350 268Q1440 358 1489 479Q1538 598 1538 729Q1538 866 1491 979Q1442 1094 1350 1190Q1260 1280 1143 1329T895 1378Q762 1378 649 1329Q530 1278 442 1190Q350
1094 301 979Q254 866 254 729T301 479Q350 364 442 268Q540 170 647 127Q764 80 895 80ZM1679 729Q1679 575 1620 434Q1561 295 1450 187T1194 18Q1055 -39 895 -39T596 18Q449 79 342 186Q229 299 172 436Q113 577 113 729Q113 885 172 1026Q229 1163 342 1276Q459
1389 594 1442Q735 1497 895 1497Q1051 1497 1198 1440Q1337 1385 1450 1276Q1561 1163 1620 1026Q1679 885 1679 729Z" />
<glyph unicode="P" glyph-name="P" horiz-adv-x="1024" d="M182 0V1464H449Q617 1464 682 1448Q758 1430 811 1391Q881 1340 918 1253Q957 1163 956 1061Q956 852 840 754Q725 658 469 657H315V0H182ZM315 774H406Q649 774 731 836Q815 897 815 1051Q815 1117
797 1171Q781 1218 739 1268Q698 1311 633 1329Q565 1347 406 1348H315V774Z" />
<glyph unicode="Q" glyph-name="Q" horiz-adv-x="1792" d="M926 600H1090L1362 283Q1450 377 1493 492Q1538 611 1538 731Q1538 864 1489 981Q1438 1102 1350 1190Q1258 1282 1141 1331T895 1380Q768 1380 652 1331T442 1190Q348 1096 303 981Q256 862 256 731T303
481Q348 366 442 272Q534 180 651 131Q764 84 899 84Q1007 84 1102 115Q1196 146 1266 205L926 600ZM1692 -102H1530L1352 104Q1241 34 1131 2T883 -31Q729 -31 590 24T342 188Q229 299 172 438Q113 579 113 731Q113 885 172 1026Q231 1165 342 1274Q453 1382 594
1440Q733 1497 895 1497Q1055 1497 1196 1440Q1339 1383 1450 1274T1620 1026Q1679 885 1679 731Q1679 573 1620 436Q1561 301 1444 186L1692 -102Z" />
<glyph unicode="R" glyph-name="R" horiz-adv-x="1079" d="M315 1348V807H449Q633 807 709 866Q783 924 782 1069Q782 1221 707 1284T449 1348H315ZM1071 0H909L395 698H315V0H182V1464H451Q688 1464 807 1366T926 1065Q926 895 826 797T545 698L1071 0Z" />
<glyph unicode="S" glyph-name="S" horiz-adv-x="1019" d="M70 246L184 307Q215 196 295 139Q377 80 483 80Q624 80 700 162Q778 246 778 389Q778 493 725 565Q674 633 500 727Q285 842 207 934Q133 1024 133 1147Q133 1303 237 1401T512 1499Q621 1499 705 1452Q781
1409 836 1313L733 1251Q704 1312 643 1348Q586 1381 504 1380Q395 1380 332 1317T268 1145Q268 989 522 858Q567 833 592 821Q778 717 841 627T905 389Q905 194 791 76Q678 -39 477 -39Q334 -39 231 33Q127 105 70 246Z" />
<glyph unicode="T" glyph-name="T" horiz-adv-x="1017" d="M442 0V1339H39V1464H979V1339H575V0H442Z" />
<glyph unicode="U" glyph-name="U" horiz-adv-x="1415" d="M176 1464H307V508Q307 291 406 186Q506 80 709 80Q910 80 1010 186Q1108 290 1108 508V1464H1241V551Q1241 252 1110 107T709 -39T307 106T176 551V1464Z" />
<glyph unicode="V" glyph-name="V" horiz-adv-x="1126" d="M555 -57L-18 1464H135L557 272L1001 1464H1147L555 -57Z" />
<glyph unicode="W" glyph-name="W" horiz-adv-x="1837" d="M530 -57L25 1464H164L530 295L920 1522L1325 305L1677 1464H1815L1325 -57L920 1186L530 -57Z" />
<glyph unicode="X" glyph-name="X" horiz-adv-x="989" d="M121 0H-25L422 770L18 1464H168L498 883L831 1464H975L571 774L1016 0H868L496 649L121 0Z" />
<glyph unicode="Y" glyph-name="Y" horiz-adv-x="1116" d="M496 0V674L10 1464H170L563 793L958 1464H1110L629 674V0H496Z" />
<glyph unicode="Z" glyph-name="Z" horiz-adv-x="1146" d="M25 0L895 1343H152V1464H1122L256 123H1034V0H25Z" />
<glyph unicode="[" glyph-name="bracketleft" horiz-adv-x="557" d="M221 1497H512V1399H338V-313H512V-412H221V1497Z" />
<glyph unicode="\" glyph-name="backslash" horiz-adv-x="823" d="M717 -190L0 1497H109L825 -190H717Z" />
<glyph unicode="]" glyph-name="bracketright" horiz-adv-x="557" d="M338 1497V-412H47V-313H223V1399H47V1497H338Z" />
<glyph unicode="^" glyph-name="asciicircum" horiz-adv-x="2048" d="M1081 1458L1622 901H1497L1024 1370L549 901H424L963 1458H1081Z" />
<glyph unicode="_" glyph-name="underscore" horiz-adv-x="1024" d="M1024 -403V-483H0V-403H1024Z" />
<glyph unicode="`" glyph-name="grave" horiz-adv-x="1024" d="M645 1030H551L268 1380H432L645 1030Z" />
<glyph unicode="a" glyph-name="a" horiz-adv-x="1107" d="M221 434Q221 264 299 170T520 76Q661 76 741 178Q821 278 821 457Q821 621 741 713Q659 807 522 807Q383 807 301 707Q221 608 221 434ZM819 0V162Q776 66 696 12Q618 -39 508 -39Q318 -39 201 92Q84
225 84 438Q84 649 199 786Q312 919 496 920Q610 920 692 870Q772 823 819 725V887H942V0H819Z" />
<glyph unicode="b" glyph-name="b" horiz-adv-x="1107" d="M883 434Q883 608 803 707Q721 807 582 807Q447 807 365 713Q285 621 285 457Q285 279 365 178Q445 76 586 76Q730 76 807 168Q883 258 883 434ZM287 0H164V1550H287V725Q334 823 414 870Q496 919 608
920Q792 920 905 786Q1020 649 1020 438Q1020 225 903 92Q786 -39 596 -39Q487 -39 410 12Q330 65 287 162V0Z" />
<glyph unicode="c" glyph-name="c" horiz-adv-x="933" d="M854 725Q795 766 723 788Q649 811 578 811Q416 811 315 705Q217 601 217 424Q217 270 319 168T578 66Q650 66 723 90Q793 113 868 166V31Q802 -6 725 -25Q645 -43 555 -43Q350 -43 221 90Q92 221 92 432Q92
649 227 784T580 920Q666 920 731 905Q792 891 856 860L854 725Z" />
<glyph unicode="d" glyph-name="d" horiz-adv-x="1107" d="M225 434Q225 264 303 170T524 76Q663 76 743 178Q823 278 823 457Q823 621 743 713Q661 807 526 807Q387 807 305 707Q225 608 225 434ZM821 0V162Q778 66 698 12Q620 -39 512 -39Q322 -39 205 92Q88
225 88 438Q88 649 203 786Q316 919 500 920Q611 920 694 870Q774 823 821 725V1550H946V0H821Z" />
<glyph unicode="e" glyph-name="e" horiz-adv-x="1017" d="M780 545Q772 664 698 733Q626 801 504 801Q393 801 318 732T229 545H780ZM926 440H221Q227 268 307 170T524 72Q620 72 696 125Q770 177 819 285L932 223Q864 90 766 25Q670 -38 524 -39Q329 -39 209
92T88 434Q88 653 207 786T520 920Q704 920 815 797T926 467V440Z" />
<glyph unicode="f" glyph-name="f" horiz-adv-x="528" d="M193 0V782H27V887H193V1143Q193 1405 244 1489Q293 1569 426 1569Q459 1569 489 1563Q526 1555 545 1548L522 1440Q499 1452 475 1458Q455 1464 434 1464Q368 1464 342 1413T315 1223V887H510V782H315V0H193Z" />
<glyph unicode="g" glyph-name="g" horiz-adv-x="1107" d="M944 887V154Q944 -10 934 -113Q926 -203 903 -250Q857 -348 762 -397T522 -446Q346 -446 246 -377Q150 -309 127 -170H281Q295 -252 360 -295Q421 -336 532 -336Q612 -336 680 -307Q745 -279 778 -227Q798
-194 809 -150Q819 -103 819 -16V31V164Q780 70 694 14Q612 -39 500 -39Q312 -39 201 90T90 440Q90 655 205 788Q318 919 506 920Q615 920 696 866Q782 811 819 721V887H944ZM520 807Q383 807 303 709T223 438T299 172Q377 76 508 76Q649 76 735 176Q821 278 821
449Q821 618 741 713Q661 807 520 807Z" />
<glyph unicode="h" glyph-name="h" horiz-adv-x="1064" d="M164 0V1550H281V750Q336 834 414 877Q494 920 594 920Q746 920 829 836T913 602V0H788V547Q788 680 733 745Q678 808 561 809Q422 809 354 725Q286 643 287 463V0H164Z" />
<glyph unicode="i" glyph-name="i" horiz-adv-x="468" d="M141 1233Q141 1272 170 1300Q197 1327 236 1327Q277 1327 303 1300Q332 1271 332 1233Q332 1192 306 1166T236 1139Q195 1139 168 1165T141 1233ZM172 0V887H299V0H172Z" />
<glyph unicode="j" glyph-name="j" horiz-adv-x="468" d="M141 1233Q141 1272 170 1300Q197 1327 236 1327Q277 1327 303 1300Q332 1271 332 1233Q332 1192 306 1166T236 1139Q195 1139 168 1165T141 1233ZM172 -446V887H299V-446H172Z" />
<glyph unicode="k" glyph-name="k" horiz-adv-x="937" d="M164 0V1550H287V494L729 887H899L424 489L934 0H764L287 459V0H164Z" />
<glyph unicode="l" glyph-name="l" horiz-adv-x="468" d="M299 0H172V1550H299V0Z" />
<glyph unicode="m" glyph-name="m" horiz-adv-x="1615" d="M287 0H164V887H287V748Q330 832 403 877Q474 920 569 920Q663 920 735 874Q803 831 840 745Q891 831 971 877Q1048 920 1149 920Q1290 920 1370 834Q1452 746 1452 600V0H1329V551Q1329 682 1276 747T1116
813Q989 813 930 729T870 467V0H748V551Q748 686 697 749T539 813Q410 813 348 729Q287 647 287 467V0Z" />
<glyph unicode="n" glyph-name="n" horiz-adv-x="1064" d="M164 0V887H281V750Q336 834 414 877Q494 920 594 920Q746 920 829 836T913 602V0H788V547Q788 680 733 745Q678 808 561 809Q422 809 354 725Q286 643 287 463V0H164Z" />
<glyph unicode="o" glyph-name="o" horiz-adv-x="1142" d="M571 76Q716 76 819 182Q919 284 920 440Q920 598 819 700Q717 804 572 804T324 700Q224 598 223 440Q223 284 324 182Q426 76 571 76ZM664 -39T568 -39T385 -2T227 106Q159 172 125 258Q90 346 90 442Q90
540 127 627Q166 717 229 780Q295 846 385 885Q467 920 567 920Q669 920 754 885Q844 848 911 780Q977 714 1016 625Q1053 539 1053 442Q1053 342 1018 260Q981 174 913 106Q841 34 754 -2Q664 -39 568 -39Z" />
<glyph unicode="p" glyph-name="p" horiz-adv-x="1107" d="M883 438Q883 612 805 709Q725 807 588 807Q445 807 365 711T285 449Q285 280 371 178T600 76Q735 76 809 172Q883 266 883 438ZM164 -446V887H283V721Q336 817 416 868Q498 919 600 920Q788 920 901
788Q1016 655 1016 440Q1016 223 904 92T606 -39Q500 -39 418 12Q334 65 283 164V-446H164Z" />
<glyph unicode="q" glyph-name="q" horiz-adv-x="1107" d="M520 807Q383 807 303 709T223 438T299 172Q377 76 508 76Q649 76 735 176Q821 278 821 449Q821 618 741 713Q661 807 520 807ZM944 -446H825V164Q774 66 690 12Q608 -39 500 -39Q316 -39 203 92T90 440Q90
655 205 788Q318 919 506 920Q610 920 692 868Q776 815 825 721V887H944V-446Z" />
<glyph unicode="r" glyph-name="r" horiz-adv-x="643" d="M287 709Q355 824 420 872Q481 919 573 920Q606 920 625 915Q662 907 678 901L639 784Q610 792 596 795Q567 799 555 799Q444 799 365 694Q287 592 287 436V0H164V887H287V709Z" />
<glyph unicode="s" glyph-name="s" horiz-adv-x="780" d="M63 158L180 225Q209 149 264 113T399 76Q477 76 522 115Q569 156 569 221Q569 321 387 393Q375 397 358 406Q219 461 162 520Q107 577 106 664Q106 777 186 850Q264 922 393 922Q499 922 578 874Q654
829 688 741L575 678Q555 741 506 774Q459 807 385 807Q322 807 279 770Q238 735 238 676Q238 623 279 586Q318 549 449 506Q601 453 645 395Q696 332 696 229Q696 110 608 35Q522 -39 375 -39Q262 -39 180 12Q100 64 63 158Z" />
<glyph unicode="t" glyph-name="t" horiz-adv-x="507" d="M190 782H27V887H190V1251H311V887H489V782H311V0H190V782Z" />
<glyph unicode="u" glyph-name="u" horiz-adv-x="1077" d="M287 887V444Q287 241 344 160Q403 76 538 76T733 160T793 444V887H915V381Q915 176 819 68Q725 -38 541 -39Q355 -39 260 68Q164 177 164 381V887H287Z" />
<glyph unicode="v" glyph-name="v" horiz-adv-x="872" d="M31 887H166L438 215L709 887H846L438 -57L31 887Z" />
<glyph unicode="w" glyph-name="w" horiz-adv-x="1325" d="M379 -57L25 887H154L385 248L664 934L942 248L1174 887H1303L948 -57L666 649L379 -57Z" />
<glyph unicode="x" glyph-name="x" horiz-adv-x="806" d="M31 887H184L401 561L618 887H768L469 461L799 0H647L399 358L154 0H0L332 461L31 887Z" />
<glyph unicode="y" glyph-name="y" horiz-adv-x="823" d="M43 887H174L428 193L662 887H793L334 -446H207L362 6L43 887Z" />
<glyph unicode="z" glyph-name="z" horiz-adv-x="778" d="M23 0L518 776H57V887H731L240 111H745V0H23Z" />
<glyph unicode="{" glyph-name="braceleft" horiz-adv-x="1024" d="M848 1389H811Q674 1389 629 1337Q582 1284 582 1124V883Q582 709 539 635T387 530Q493 499 539 426Q582 356 582 178V-63Q582 -225 629 -276Q676 -325 809 -326H848V-414H805Q615 -414 547 -340T479
-39V201Q479 361 422 424T221 487Q219 487 212 486T199 485H176V575Q180 575 186 574T197 573H225Q364 573 421 636T479 860V1100Q479 1329 546 1403T805 1477H848V1389Z" />
<glyph unicode="|" glyph-name="bar" horiz-adv-x="1024" d="M557 1565V-483H467V1565H557Z" />
<glyph unicode="}" glyph-name="braceright" horiz-adv-x="1024" d="M545 1100V860Q545 700 602 637T803 573H825Q831 573 838 574T848 575V485H825Q819 485 812 486T803 487Q660 487 603 424T545 201V-39Q545 -266 478 -340T219 -414H176V-326H215Q348 -326 395
-276Q442 -225 442 -63V178Q442 352 485 426T639 530Q528 561 485 635T442 883V1124Q442 1284 395 1337Q350 1388 213 1389H176V1477H219Q409 1477 477 1403T545 1100Z" />
<glyph unicode="~" glyph-name="asciitilde" horiz-adv-x="1705" d="M1530 647Q1422 573 1327 537T1143 500Q1043 500 877 561Q873 563 865 566T854 569Q844 571 821 582Q661 641 565 641Q481 641 389 604Q299 567 178 481V573Q274 641 379 682Q475 719 565 719Q663
719 836 657Q840 655 846 653T854 651Q858 651 865 647T883 641Q1053 580 1143 580Q1221 580 1319 618Q1405 653 1530 739V647Z" />
<glyph unicode="&#x80;" glyph-name="Euro" horiz-adv-x="1179" d="M1108 250L1104 98Q1030 35 932 -2Q836 -39 743 -39Q520 -39 362 119Q208 273 168 549H4L25 647H158Q158 651 157 659T156 674V719V756Q156 764 160 809H4L25 909H172Q219 1171 373 1323Q533
1479 743 1479Q852 1479 938 1440Q1032 1397 1102 1325V1176Q1022 1268 934 1315Q850 1360 754 1360Q580 1360 461 1241Q344 1124 303 909H954L926 809H291Q287 764 287 756V719V674Q287 668 288 660T289 647H877L846 549H299Q332 334 453 205Q570 80 739 80Q833
80 933 125T1108 250Z" />
<glyph unicode="&#xa0;" glyph-name="uni00A0" horiz-adv-x="1179" />
<glyph unicode="&#xa1;" glyph-name="exclamdown" horiz-adv-x="634" d="M256 1157H379V0H256V1157ZM215 1395Q215 1440 243 1468T317 1497Q360 1497 389 1468Q420 1437 420 1395Q420 1354 389 1323T317 1292Q274 1292 244 1323Q215 1352 215 1395Z" />
<glyph unicode="&#xa2;" glyph-name="cent" horiz-adv-x="1179" d="M567 1110Q430 1094 342 994T254 748Q254 594 338 494Q420 396 567 375V1110ZM930 1028Q869 1067 797 1089T647 1114V369Q753 383 813 403Q887 430 930 465V334Q867 297 803 281Q746 267 647
262V57H567V264Q364 276 246 406Q123 537 123 735Q123 938 242 1065Q365 1196 567 1221V1382H647V1223Q721 1223 786 1208Q860 1192 930 1163V1028Z" />
<glyph unicode="&#xa3;" glyph-name="sterling" horiz-adv-x="1179" d="M100 20Q137 88 184 129Q233 172 295 190Q342 260 356 297Q374 346 375 395Q375 448 365 489Q355 528 330 600H100V690H285Q234 794 209 889Q182 989 182 1061Q182 1245 307 1362Q434 1479
631 1479Q836 1479 950 1366Q1067 1251 1073 1051L946 1028Q943 1185 860 1274Q778 1362 635 1362Q488 1362 403 1280Q317 1197 317 1059Q317 993 342 901Q367 805 418 690H807V600H449Q465 557 477 502Q487 455 487 424Q487 358 461 295Q438 242 385 195Q479 191
612 137Q751 80 803 80Q862 80 915 115Q966 148 1014 223L1102 164Q1049 62 977 12Q906 -37 811 -37Q723 -37 592 23Q457 84 395 84Q337 84 285 53Q232 22 186 -41L100 20Z" />
<glyph unicode="&#xa4;" glyph-name="currency" horiz-adv-x="1179" d="M1108 250L1104 98Q1030 35 932 -2Q836 -39 743 -39Q520 -39 362 119Q208 273 168 549H4L25 647H158Q158 651 157 659T156 674V719V756Q156 764 160 809H4L25 909H172Q219 1171 373 1323Q533
1479 743 1479Q852 1479 938 1440Q1032 1397 1102 1325V1176Q1022 1268 934 1315Q850 1360 754 1360Q580 1360 461 1241Q344 1124 303 909H954L926 809H291Q287 764 287 756V719V674Q287 668 288 660T289 647H877L846 549H299Q332 334 453 205Q570 80 739 80Q833
80 933 125T1108 250Z" />
<glyph unicode="&#xa5;" glyph-name="yen" horiz-adv-x="1181" d="M530 0V631H33V729H489L391 891H33V991H326L43 1452H190L592 776L1004 1452H1139L858 991H1147V891H795L696 729H1147V631H657V0H530Z" />
<glyph unicode="&#xa6;" glyph-name="brokenbar" horiz-adv-x="1024" d="M557 408V-350H467V408H557ZM557 1432V674H467V1432H557Z" />
<glyph unicode="&#xa7;" glyph-name="section" horiz-adv-x="1040" d="M526 254Q641 254 721 334T801 530Q801 653 725 729T526 805Q409 805 330 725T250 530Q250 405 325 330T526 254ZM176 -92H303Q305 -209 362 -268Q417 -325 530 -326Q634 -326 692 -270Q751
-215 752 -113Q752 -31 707 16Q662 65 494 127Q355 180 317 199Q258 232 233 252Q170 309 143 375Q114 445 115 530Q115 651 186 745Q258 837 385 879Q268 928 219 997Q166 1073 166 1176Q166 1323 266 1411T537 1499Q706 1499 795 1413Q885 1327 885 1165V1145H750Q744
1270 690 1329Q635 1390 528 1391Q428 1391 369 1333Q308 1274 308 1184T358 1041T567 928Q776 852 854 766Q934 676 934 535Q934 398 866 309Q796 217 670 178Q776 133 831 55Q886 -21 887 -127Q887 -270 789 -362T532 -455Q368 -455 272 -363T176 -115V-92Z"
/>
<glyph unicode="&#xa8;" glyph-name="dieresis" horiz-adv-x="1024" d="M590 1147T590 1188T618 1257T688 1286Q727 1286 755 1258T784 1188Q784 1145 758 1119T688 1092T618 1118Q590 1147 590 1188ZM240 1188Q240 1229 268 1257T336 1286Q377 1286 405 1258T434
1188Q434 1149 406 1121T336 1092Q293 1092 267 1118T240 1188Z" />
<glyph unicode="&#xa9;" glyph-name="copyright" horiz-adv-x="1705" d="M1081 918Q1058 1000 1001 1045T854 1090Q727 1090 658 994T588 719Q588 553 659 453Q729 355 854 354Q946 354 1010 406Q1076 459 1094 547H1196Q1184 422 1087 346Q987 268 848 268Q676
268 573 391Q471 516 471 725Q471 932 578 1053Q686 1176 860 1176Q993 1176 1083 1104T1186 918H1081ZM1511 721Q1511 853 1462 973Q1413 1094 1321 1186Q1225 1282 1106 1331T852 1380Q720 1380 600 1331Q485 1284 391 1190Q293 1090 246 973Q195 848 195 721Q195
596 246 471Q295 352 389 258Q487 160 602 113Q721 64 852 64T1104 115Q1229 168 1321 260T1462 469T1511 721ZM852 1452Q1003 1452 1135 1397Q1268 1342 1372 1237Q1472 1141 1530 1001Q1583 874 1583 721Q1583 571 1530 440Q1477 311 1372 209Q1266 103 1130
47Q991 -10 852 -10Q708 -10 575 45Q440 102 338 207Q234 311 179 442T123 721Q123 864 178 999Q231 1128 340 1241Q440 1343 571 1399Q698 1452 852 1452Z" />
<glyph unicode="&#xaa;" glyph-name="ordfeminine" horiz-adv-x="829" d="M166 1147Q166 1028 225 963T391 897Q493 897 554 968T616 1163Q616 1278 555 1343T392 1409T228 1340T166 1147ZM614 844V956Q581 890 520 852Q465 817 381 817Q236 817 150 909T63 1150T150
1393Q238 1487 373 1487Q457 1487 520 1452Q579 1419 614 1352V1464H707V844H614Z" />
<glyph unicode="&#xab;" glyph-name="guillemotleft" horiz-adv-x="780" d="M655 49L401 436L647 831L733 778L522 434L737 102L655 49ZM297 49L45 436L289 831L375 778L166 434L379 102L297 49Z" />
<glyph unicode="&#xac;" glyph-name="logicalnot" horiz-adv-x="1705" d="M1452 856V354H1374V774H254V856H1452Z" />
<glyph unicode="&#xad;" glyph-name="uni00AD" horiz-adv-x="710" d="M137 506H573V377H137V506Z" />
<glyph unicode="&#xae;" glyph-name="registered" horiz-adv-x="1705" d="M852 1077H684V764H852Q995 764 1050 801T1106 926Q1106 1004 1045 1040T852 1077ZM874 1155Q1048 1155 1139 1098Q1223 1045 1223 922Q1223 834 1167 772Q1116 715 1020 702L1210 309H1079L897
686H684V309H569V1155H874ZM1511 721Q1511 853 1462 973Q1413 1094 1321 1186Q1225 1282 1106 1331T852 1380Q720 1380 600 1331Q485 1284 391 1190Q293 1090 246 973Q195 848 195 721Q195 596 246 471Q295 352 389 258Q487 160 602 113Q721 64 852 64T1104 115Q1229
168 1321 260T1462 469T1511 721ZM852 1452Q1003 1452 1135 1397Q1268 1342 1372 1237Q1472 1141 1530 1001Q1583 874 1583 721Q1583 571 1530 440Q1477 311 1372 209Q1266 103 1130 47Q991 -10 852 -10Q708 -10 575 45Q440 102 338 207Q234 311 179 442T123 721Q123
864 178 999Q231 1128 340 1241Q440 1343 571 1399Q698 1452 852 1452Z" />
<glyph unicode="&#xaf;" glyph-name="overscore" horiz-adv-x="1024" d="M254 1118V1235H770V1118H254Z" />
<glyph unicode="&#xb0;" glyph-name="degree" horiz-adv-x="673" d="M551 1176Q551 1262 488 1325T338 1389Q248 1389 187 1328T125 1176Q125 1088 188 1024Q249 963 338 963Q428 963 489 1024T551 1176ZM338 1450Q451 1450 530 1370T610 1176Q610 1063 531 983T336
903Q219 903 141 981T63 1176Q63 1291 143 1370T338 1450Z" />
<glyph unicode="&#xb1;" glyph-name="plusminus" horiz-adv-x="1705" d="M1452 141V59H254V141H1452ZM893 1161V807H1452V727H893V375H813V727H254V807H813V1161H893Z" />
<glyph unicode="&#xb2;" glyph-name="uni00B2" horiz-adv-x="776" d="M668 645V575H47L256 782L315 842Q577 1100 578 1212Q578 1292 518 1341Q460 1390 365 1391Q267 1391 211 1335Q154 1278 154 1184H68V1192Q68 1315 150 1389Q234 1463 373 1462Q508 1462 590
1395T672 1219Q672 1081 451 862L438 850L225 645H668Z" />
<glyph unicode="&#xb3;" glyph-name="uni00B3" horiz-adv-x="776" d="M160 797Q166 711 219 668Q274 623 371 623Q471 623 528 672T586 809T528 946Q467 997 369 997H346Q344 997 339 996T332 995V1071Q334 1071 341 1070T354 1069H375Q467 1069 518 1112Q571
1155 571 1229Q571 1301 518 1348Q467 1393 381 1393Q305 1393 256 1356Q209 1321 199 1251H104Q116 1349 190 1405Q266 1462 381 1462Q504 1462 584 1399Q662 1338 662 1235Q662 1159 618 1108Q573 1055 494 1032Q582 1005 631 946Q678 891 678 809Q678 692 596
623T371 553Q232 553 154 616Q74 679 66 797H160Z" />
<glyph unicode="&#xb4;" glyph-name="acute" horiz-adv-x="1024" d="M379 1030L592 1380H756L473 1030H379Z" />
<glyph unicode="&#xb5;" glyph-name="uni00B5" horiz-adv-x="1093" d="M326 1063L203 473Q195 430 190 395Q186 350 186 332Q186 201 246 139Q307 73 420 74Q547 74 639 182Q733 293 776 496L901 1063H1022L856 276Q854 272 854 265Q852 258 852 254Q832 166 831
141Q831 108 848 94Q868 78 899 78H918Q920 78 927 79T938 80L920 -16L916 -17Q913 -18 911 -18Q870 -28 844 -29Q778 -29 743 2Q710 33 711 98V115L715 143Q672 59 592 16Q508 -29 403 -29Q305 -29 233 16Q159 61 129 143L10 -424H-111L205 1063H326Z" />
<glyph unicode="&#xb6;" glyph-name="paragraph" horiz-adv-x="1024" d="M932 1415H803V0H733V1415H541V0H471V782Q295 792 193 885Q91 979 90 1130Q90 1286 198 1382T485 1479H932V1415Z" />
<glyph unicode="&#xb7;" glyph-name="middot" horiz-adv-x="589" d="M193 719Q193 760 223 790T295 821T366 791T397 719Q397 676 367 645Q338 616 295 616T223 645Q193 676 193 719Z" />
<glyph unicode="&#xb8;" glyph-name="cedilla" horiz-adv-x="1024" d="M301 -379V-309Q385 -327 446 -336Q492 -342 526 -342Q587 -342 621 -319Q652 -299 652 -254T617 -187T510 -164Q508 -164 502 -165T489 -166H469V0H530V-100H545Q649 -100 702 -139Q757 -180
758 -252Q758 -336 705 -375Q648 -416 543 -416Q486 -416 434 -408Q385 -399 301 -379Z" />
<glyph unicode="&#xb9;" glyph-name="uni00B9" horiz-adv-x="776" d="M360 575V1374H186L227 1446H444V575H360Z" />
<glyph unicode="&#xba;" glyph-name="ordmasculine" horiz-adv-x="856" d="M428 897Q537 897 614 971Q690 1045 690 1153Q690 1259 614 1333Q536 1407 428 1407Q317 1407 244 1333Q168 1257 168 1153Q168 1044 244 971Q320 897 428 897ZM426 817Q352 817 289 842Q230
865 170 918Q121 961 95 1024T68 1153Q68 1223 94 1282Q121 1343 172 1390T287 1462Q353 1487 426 1487Q504 1487 567 1463T684 1391Q736 1342 764 1280Q791 1221 791 1153T764 1026Q733 960 686 918Q635 869 565 844Q492 817 426 817Z" />
<glyph unicode="&#xbb;" glyph-name="guillemotright" horiz-adv-x="780" d="M127 49L45 102L260 434L49 778L135 831L379 436L127 49ZM485 49L401 102L616 434L408 778L494 831L737 436L485 49Z" />
<glyph unicode="&#xbc;" glyph-name="onequarter" horiz-adv-x="1828" d="M1540 272V641L1249 272H1540ZM1540 0V207H1124L1624 840V272H1718V207H1624V0H1540ZM401 -39L1319 1479H1425L510 -39H401ZM344 633V1378H176L217 1444H424V633H344Z" />
<glyph unicode="&#xbd;" glyph-name="onehalf" horiz-adv-x="1828" d="M1722 63V0H1130L1329 195Q1339 203 1351 216T1382 246Q1636 488 1636 596Q1636 670 1579 715Q1520 762 1432 762Q1338 762 1286 711Q1233 658 1233 567H1151V575Q1151 692 1229 759T1442
827Q1573 827 1649 766Q1727 705 1726 600Q1726 469 1507 260L1503 256L1300 63H1722ZM401 -39L1319 1479H1425L510 -39H401ZM344 633V1378H176L217 1444H424V633H344Z" />
<glyph unicode="&#xbe;" glyph-name="threequarters" horiz-adv-x="1828" d="M1540 272V641L1249 272H1540ZM1540 0V207H1124L1624 840V272H1718V207H1624V0H1540ZM401 -39L1319 1479H1425L510 -39H401ZM152 840Q158 758 209 719Q262 678 354 678T504 725Q559
770 559 850Q559 934 504 981Q451 1026 350 1026H315V1096H338Q344 1096 350 1095T358 1094Q448 1094 496 1133Q545 1172 545 1241T496 1354Q449 1395 365 1395Q291 1395 244 1360Q201 1327 190 1264H100Q110 1356 180 1407Q252 1460 365 1460Q482 1460 557 1401Q631
1344 631 1249Q631 1175 590 1128Q547 1079 471 1059Q554 1034 600 979Q647 922 647 850Q647 741 567 676Q485 610 354 610Q225 610 147 670Q73 725 61 840H152Z" />
<glyph unicode="&#xbf;" glyph-name="questiondown" horiz-adv-x="1052" d="M639 1395Q639 1352 610 1323Q579 1292 537 1292Q492 1292 465 1321Q436 1354 436 1395T465 1468Q492 1497 537 1497T610 1469T639 1395ZM750 365H868V332Q868 160 770 61Q670 -39 506
-39Q352 -39 262 51T172 295Q172 410 219 481Q270 557 416 651L489 698Q688 823 688 928Q688 1002 641 1044Q595 1087 518 1087Q432 1087 381 1040Q332 995 332 909V891H221V915Q221 1052 301 1122Q383 1194 532 1194Q655 1194 735 1118Q813 1044 813 926Q813 838
768 773T596 623L524 575Q297 430 297 303Q297 207 356 147Q413 90 512 90Q627 90 688 159T750 358V365Z" />
<glyph unicode="&#xc0;" glyph-name="Agrave" horiz-adv-x="1222" d="M356 610H866L616 1247L356 610ZM-18 0L625 1522L1241 0H1096L909 496H311L117 0H-18ZM745 1608H651L368 1958H532L745 1608Z" />
<glyph unicode="&#xc1;" glyph-name="Aacute" horiz-adv-x="1222" d="M356 610H866L616 1247L356 610ZM-18 0L625 1522L1241 0H1096L909 496H311L117 0H-18ZM479 1608L692 1958H856L573 1608H479Z" />
<glyph unicode="&#xc2;" glyph-name="Acircumflex" horiz-adv-x="1222" d="M356 610H866L616 1247L356 610ZM-18 0L625 1522L1241 0H1096L909 496H311L117 0H-18ZM325 1608L538 1958H684L897 1608H805L612 1858L417 1608H325Z" />
<glyph unicode="&#xc3;" glyph-name="Atilde" horiz-adv-x="1222" d="M356 610H866L616 1247L356 610ZM-18 0L625 1522L1241 0H1096L909 496H311L117 0H-18ZM903 1872Q878 1782 827 1735T704 1688Q681 1688 671 1690Q651 1694 639 1698L559 1725Q543 1729 533
1731T501 1733Q468 1733 448 1719Q423 1703 409 1672H321Q344 1758 393 1805Q440 1850 520 1850Q543 1850 553 1848T579 1842L657 1815Q669 1811 690 1807Q700 1805 718 1805Q755 1805 778 1821Q803 1839 815 1872H903Z" />
<glyph unicode="&#xc4;" glyph-name="Adieresis" horiz-adv-x="1222" d="M356 610H866L616 1247L356 610ZM-18 0L625 1522L1241 0H1096L909 496H311L117 0H-18ZM690 1725T690 1766T718 1835T788 1864Q827 1864 855 1836T884 1766Q884 1723 858 1697T788 1670T718
1696Q690 1725 690 1766ZM340 1766Q340 1807 368 1835T436 1864Q477 1864 505 1836T534 1766Q534 1727 506 1699T436 1670Q393 1670 367 1696T340 1766Z" />
<glyph unicode="&#xc5;" glyph-name="Aring" horiz-adv-x="1222" d="M492 1737Q492 1682 530 1643T624 1604T719 1642T758 1736T719 1831T625 1870T531 1831T492 1737ZM389 1636T389 1736T456 1904T624 1972T792 1905T860 1737T793 1569T625 1501T457 1568ZM356
610H866L616 1243L356 610ZM-18 0L606 1460H645L1241 0H1096L909 496H311L117 0H-18Z" />
<glyph unicode="&#xc6;" glyph-name="AE" horiz-adv-x="1687" d="M348 610H805L588 1272L348 610ZM135 0H8L537 1464H1155L1196 1339H690L848 881H1374L1417 756H891L1106 125H1638L1679 0H1014L844 496H311L135 0Z" />
<glyph unicode="&#xc7;" glyph-name="Ccedilla" horiz-adv-x="1462" d="M1358 1196Q1256 1286 1135 1335Q1024 1380 895 1380Q612 1380 434 1200T256 731Q256 586 299 469Q340 356 432 264Q522 174 632 129T877 84Q1003 84 1122 127Q1239 170 1350 254V98Q1239
30 1122 -4Q1009 -39 883 -39Q721 -39 580 18Q428 79 330 178Q221 287 168 424Q113 565 113 731Q113 889 170 1036Q225 1179 332 1282Q434 1380 580 1440Q721 1497 883 1497Q1026 1497 1143 1458Q1266 1417 1360 1343L1358 1196ZM649 -379V-309Q733 -327 794 -336Q840
-342 874 -342Q935 -342 969 -319Q1000 -299 1000 -254T965 -187T858 -164Q856 -164 850 -165T837 -166H817V0H878V-100H893Q997 -100 1050 -139Q1105 -180 1106 -252Q1106 -336 1053 -375Q996 -416 891 -416Q834 -416 782 -408Q733 -399 649 -379Z" />
<glyph unicode="&#xc8;" glyph-name="Egrave" horiz-adv-x="1050" d="M182 0V1464H907V1339H315V881H907V756H315V125H907V0H182ZM674 1608H580L297 1958H461L674 1608Z" />
<glyph unicode="&#xc9;" glyph-name="Eacute" horiz-adv-x="1050" d="M182 0V1464H907V1339H315V881H907V756H315V125H907V0H182ZM408 1608L621 1958H785L502 1608H408Z" />
<glyph unicode="&#xca;" glyph-name="Ecircumflex" horiz-adv-x="1050" d="M182 0V1464H907V1339H315V881H907V756H315V125H907V0H182ZM254 1608L467 1958H613L826 1608H734L541 1858L346 1608H254Z" />
<glyph unicode="&#xcb;" glyph-name="Edieresis" horiz-adv-x="1050" d="M182 0V1464H907V1339H315V881H907V756H315V125H907V0H182ZM619 1725T619 1766T647 1835T717 1864Q756 1864 784 1836T813 1766Q813 1723 787 1697T717 1670T647 1696Q619 1725 619 1766ZM269
1766Q269 1807 297 1835T365 1864Q406 1864 434 1836T463 1766Q463 1727 435 1699T365 1670Q322 1670 296 1696T269 1766Z" />
<glyph unicode="&#xcc;" glyph-name="Igrave" horiz-adv-x="497" d="M182 0V1464H315V0H182ZM383 1608H289L6 1958H170L383 1608Z" />
<glyph unicode="&#xcd;" glyph-name="Iacute" horiz-adv-x="497" d="M182 0V1464H315V0H182ZM117 1608L330 1958H494L211 1608H117Z" />
<glyph unicode="&#xce;" glyph-name="Icircumflex" horiz-adv-x="497" d="M182 0V1464H315V0H182ZM-37 1608L176 1958H322L535 1608H443L250 1858L55 1608H-37Z" />
<glyph unicode="&#xcf;" glyph-name="Idieresis" horiz-adv-x="497" d="M182 0V1464H315V0H182ZM328 1725T328 1766T356 1835T426 1864Q465 1864 493 1836T522 1766Q522 1723 496 1697T426 1670T356 1696Q328 1725 328 1766ZM-22 1766Q-22 1807 6 1835T74 1864Q115
1864 143 1836T172 1766Q172 1727 144 1699T74 1670Q31 1670 5 1696T-22 1766Z" />
<glyph unicode="&#xd0;" glyph-name="Eth" horiz-adv-x="1435" d="M326 115H510Q731 115 834 141Q932 166 995 227Q1085 311 1132 440T1180 733Q1180 899 1133 1030Q1088 1157 993 1239Q923 1302 821 1327Q710 1354 467 1354H442H326V864H752V762H326V115ZM193
0V762H0V864H193V1464H420Q727 1464 856 1434Q987 1403 1073 1331Q1194 1235 1260 1079Q1323 927 1323 731Q1323 532 1260 385Q1194 231 1071 133Q977 61 856 31Q733 0 444 0H420H193Z" />
<glyph unicode="&#xd1;" glyph-name="Ntilde" horiz-adv-x="1525" d="M182 0V1526L1219 301V1464H1343V-43L307 1184V0H182ZM1055 1872Q1030 1782 979 1735T856 1688Q833 1688 823 1690Q803 1694 791 1698L711 1725Q695 1729 685 1731T653 1733Q620 1733 600 1719Q575
1703 561 1672H473Q496 1758 545 1805Q592 1850 672 1850Q695 1850 705 1848T731 1842L809 1815Q821 1811 842 1807Q852 1805 870 1805Q907 1805 930 1821Q955 1839 967 1872H1055Z" />
<glyph unicode="&#xd2;" glyph-name="Ograve" horiz-adv-x="1792" d="M895 80Q1028 80 1141 127Q1258 176 1350 268Q1440 358 1489 479Q1538 598 1538 729Q1538 866 1491 979Q1442 1094 1350 1190Q1260 1280 1143 1329T895 1378Q762 1378 649 1329Q530 1278 442
1190Q350 1094 301 979Q254 866 254 729T301 479Q350 364 442 268Q540 170 647 127Q764 80 895 80ZM1679 729Q1679 575 1620 434Q1561 295 1450 187T1194 18Q1055 -39 895 -39T596 18Q449 79 342 186Q229 299 172 436Q113 577 113 729Q113 885 172 1026Q229 1163
342 1276Q459 1389 594 1442Q735 1497 895 1497Q1051 1497 1198 1440Q1337 1385 1450 1276Q1561 1163 1620 1026Q1679 885 1679 729ZM1030 1608H936L653 1958H817L1030 1608Z" />
<glyph unicode="&#xd3;" glyph-name="Oacute" horiz-adv-x="1792" d="M895 80Q1028 80 1141 127Q1258 176 1350 268Q1440 358 1489 479Q1538 598 1538 729Q1538 866 1491 979Q1442 1094 1350 1190Q1260 1280 1143 1329T895 1378Q762 1378 649 1329Q530 1278 442
1190Q350 1094 301 979Q254 866 254 729T301 479Q350 364 442 268Q540 170 647 127Q764 80 895 80ZM1679 729Q1679 575 1620 434Q1561 295 1450 187T1194 18Q1055 -39 895 -39T596 18Q449 79 342 186Q229 299 172 436Q113 577 113 729Q113 885 172 1026Q229 1163
342 1276Q459 1389 594 1442Q735 1497 895 1497Q1051 1497 1198 1440Q1337 1385 1450 1276Q1561 1163 1620 1026Q1679 885 1679 729ZM764 1608L977 1958H1141L858 1608H764Z" />
<glyph unicode="&#xd4;" glyph-name="Ocircumflex" horiz-adv-x="1792" d="M895 80Q1028 80 1141 127Q1258 176 1350 268Q1440 358 1489 479Q1538 598 1538 729Q1538 866 1491 979Q1442 1094 1350 1190Q1260 1280 1143 1329T895 1378Q762 1378 649 1329Q530 1278
442 1190Q350 1094 301 979Q254 866 254 729T301 479Q350 364 442 268Q540 170 647 127Q764 80 895 80ZM1679 729Q1679 575 1620 434Q1561 295 1450 187T1194 18Q1055 -39 895 -39T596 18Q449 79 342 186Q229 299 172 436Q113 577 113 729Q113 885 172 1026Q229
1163 342 1276Q459 1389 594 1442Q735 1497 895 1497Q1051 1497 1198 1440Q1337 1385 1450 1276Q1561 1163 1620 1026Q1679 885 1679 729ZM610 1608L823 1958H969L1182 1608H1090L897 1858L702 1608H610Z" />
<glyph unicode="&#xd5;" glyph-name="Otilde" horiz-adv-x="1792" d="M895 80Q1028 80 1141 127Q1258 176 1350 268Q1440 358 1489 479Q1538 598 1538 729Q1538 866 1491 979Q1442 1094 1350 1190Q1260 1280 1143 1329T895 1378Q762 1378 649 1329Q530 1278 442
1190Q350 1094 301 979Q254 866 254 729T301 479Q350 364 442 268Q540 170 647 127Q764 80 895 80ZM1679 729Q1679 575 1620 434Q1561 295 1450 187T1194 18Q1055 -39 895 -39T596 18Q449 79 342 186Q229 299 172 436Q113 577 113 729Q113 885 172 1026Q229 1163
342 1276Q459 1389 594 1442Q735 1497 895 1497Q1051 1497 1198 1440Q1337 1385 1450 1276Q1561 1163 1620 1026Q1679 885 1679 729ZM1188 1872Q1163 1782 1112 1735T989 1688Q966 1688 956 1690Q936 1694 924 1698L844 1725Q828 1729 818 1731T786 1733Q753 1733
733 1719Q708 1703 694 1672H606Q629 1758 678 1805Q725 1850 805 1850Q828 1850 838 1848T864 1842L942 1815Q954 1811 975 1807Q985 1805 1003 1805Q1040 1805 1063 1821Q1088 1839 1100 1872H1188Z" />
<glyph unicode="&#xd6;" glyph-name="Odieresis" horiz-adv-x="1792" d="M895 80Q1028 80 1141 127Q1258 176 1350 268Q1440 358 1489 479Q1538 598 1538 729Q1538 866 1491 979Q1442 1094 1350 1190Q1260 1280 1143 1329T895 1378Q762 1378 649 1329Q530 1278
442 1190Q350 1094 301 979Q254 866 254 729T301 479Q350 364 442 268Q540 170 647 127Q764 80 895 80ZM1679 729Q1679 575 1620 434Q1561 295 1450 187T1194 18Q1055 -39 895 -39T596 18Q449 79 342 186Q229 299 172 436Q113 577 113 729Q113 885 172 1026Q229
1163 342 1276Q459 1389 594 1442Q735 1497 895 1497Q1051 1497 1198 1440Q1337 1385 1450 1276Q1561 1163 1620 1026Q1679 885 1679 729ZM975 1725T975 1766T1003 1835T1073 1864Q1112 1864 1140 1836T1169 1766Q1169 1723 1143 1697T1073 1670T1003 1696Q975
1725 975 1766ZM625 1766Q625 1807 653 1835T721 1864Q762 1864 790 1836T819 1766Q819 1727 791 1699T721 1670Q678 1670 652 1696T625 1766Z" />
<glyph unicode="&#xd7;" glyph-name="multiply" horiz-adv-x="1705" d="M854 668L1341 1155L1399 1098L911 610L1399 123L1341 66L854 553L367 66L309 123L797 610L309 1098L367 1155L854 668Z" />
<glyph unicode="&#xd8;" glyph-name="Oslash" horiz-adv-x="1792" d="M489 233Q585 157 686 121Q784 84 895 84Q1020 84 1141 133Q1261 182 1350 274Q1442 366 1491 483Q1538 596 1538 731Q1538 848 1501 952Q1466 1052 1384 1153L489 233ZM1319 1221Q1227 1301
1122 1339Q1011 1380 895 1380Q766 1380 649 1331Q528 1280 442 1192Q350 1100 303 981T256 731Q256 610 297 504Q338 395 422 297L1319 1221ZM219 -45L154 25L330 205Q226 303 168 442Q113 577 113 731T172 1026Q231 1165 342 1274Q455 1385 596 1442Q735 1499
895 1499Q1045 1499 1176 1452Q1303 1407 1409 1313L1593 1505L1663 1438L1477 1247Q1573 1145 1626 1008T1679 731Q1679 577 1620 436Q1561 297 1450 188Q1335 75 1194 23Q1049 -32 885 -33Q742 -33 627 8Q506 51 397 139L219 -45Z" />
<glyph unicode="&#xd9;" glyph-name="Ugrave" horiz-adv-x="1415" d="M176 1464H307V508Q307 291 406 186Q506 80 709 80Q910 80 1010 186Q1108 290 1108 508V1464H1241V551Q1241 252 1110 107T709 -39T307 106T176 551V1464ZM842 1608H748L465 1958H629L842 1608Z" />
<glyph unicode="&#xda;" glyph-name="Uacute" horiz-adv-x="1415" d="M176 1464H307V508Q307 291 406 186Q506 80 709 80Q910 80 1010 186Q1108 290 1108 508V1464H1241V551Q1241 252 1110 107T709 -39T307 106T176 551V1464ZM576 1608L789 1958H953L670 1608H576Z" />
<glyph unicode="&#xdb;" glyph-name="Ucircumflex" horiz-adv-x="1415" d="M176 1464H307V508Q307 291 406 186Q506 80 709 80Q910 80 1010 186Q1108 290 1108 508V1464H1241V551Q1241 252 1110 107T709 -39T307 106T176 551V1464ZM422 1608L635 1958H781L994
1608H902L709 1858L514 1608H422Z" />
<glyph unicode="&#xdc;" glyph-name="Udieresis" horiz-adv-x="1415" d="M176 1464H307V508Q307 291 406 186Q506 80 709 80Q910 80 1010 186Q1108 290 1108 508V1464H1241V551Q1241 252 1110 107T709 -39T307 106T176 551V1464ZM787 1725T787 1766T815 1835T885
1864Q924 1864 952 1836T981 1766Q981 1723 955 1697T885 1670T815 1696Q787 1725 787 1766ZM437 1766Q437 1807 465 1835T533 1864Q574 1864 602 1836T631 1766Q631 1727 603 1699T533 1670Q490 1670 464 1696T437 1766Z" />
<glyph unicode="&#xdd;" glyph-name="Yacute" horiz-adv-x="1116" d="M496 0V674L10 1464H170L563 793L958 1464H1110L629 674V0H496ZM426 1608L639 1958H803L520 1608H426Z" />
<glyph unicode="&#xde;" glyph-name="Thorn" horiz-adv-x="1024" d="M315 473H406Q649 473 731 535Q815 596 815 750Q815 818 797 872Q781 919 739 969Q699 1012 635 1030Q578 1046 406 1047H315V473ZM182 0V1464H315V1165H426Q610 1165 678 1149Q750 1133 811
1090Q883 1035 918 952Q957 862 956 762Q956 555 838 455Q721 357 469 356H315V0H182Z" />
<glyph unicode="&#xdf;" glyph-name="germandbls" horiz-adv-x="1058" d="M154 0V782H33V887H154V1184Q154 1368 246 1470Q338 1570 510 1571Q676 1571 772 1466Q868 1360 868 1182Q868 1065 813 985Q760 907 651 864Q803 846 881 737Q961 626 961 432Q961 211
846 84Q729 -45 535 -45Q506 -45 475 -39Q446 -33 412 -20V111Q447 95 475 88Q520 80 543 80Q682 80 756 172Q832 266 831 434Q831 610 748 707Q666 801 506 801H479Q473 801 462 800T434 797V922Q438 922 444 921T453 920H483Q614 920 678 987Q741 1053 741 1190Q741
1321 680 1389Q617 1459 500 1458Q430 1458 379 1427Q328 1398 303 1337Q289 1310 283 1257Q277 1211 276 1110V1026V0H154Z" />
<glyph unicode="&#xe0;" glyph-name="agrave" horiz-adv-x="1107" d="M221 434Q221 264 299 170T520 76Q661 76 741 178Q821 278 821 457Q821 621 741 713Q659 807 522 807Q383 807 301 707Q221 608 221 434ZM819 0V162Q776 66 696 12Q618 -39 508 -39Q318 -39
201 92Q84 225 84 438Q84 649 199 786Q312 919 496 920Q610 920 692 870Q772 823 819 725V887H942V0H819ZM688 1030H594L311 1380H475L688 1030Z" />
<glyph unicode="&#xe1;" glyph-name="aacute" horiz-adv-x="1107" d="M221 434Q221 264 299 170T520 76Q661 76 741 178Q821 278 821 457Q821 621 741 713Q659 807 522 807Q383 807 301 707Q221 608 221 434ZM819 0V162Q776 66 696 12Q618 -39 508 -39Q318 -39
201 92Q84 225 84 438Q84 649 199 786Q312 919 496 920Q610 920 692 870Q772 823 819 725V887H942V0H819ZM422 1030L635 1380H799L516 1030H422Z" />
<glyph unicode="&#xe2;" glyph-name="acircumflex" horiz-adv-x="1107" d="M221 434Q221 264 299 170T520 76Q661 76 741 178Q821 278 821 457Q821 621 741 713Q659 807 522 807Q383 807 301 707Q221 608 221 434ZM819 0V162Q776 66 696 12Q618 -39 508 -39Q318
-39 201 92Q84 225 84 438Q84 649 199 786Q312 919 496 920Q610 920 692 870Q772 823 819 725V887H942V0H819ZM268 1030L481 1380H627L840 1030H748L555 1280L360 1030H268Z" />
<glyph unicode="&#xe3;" glyph-name="atilde" horiz-adv-x="1107" d="M221 434Q221 264 299 170T520 76Q661 76 741 178Q821 278 821 457Q821 621 741 713Q659 807 522 807Q383 807 301 707Q221 608 221 434ZM819 0V162Q776 66 696 12Q618 -39 508 -39Q318 -39
201 92Q84 225 84 438Q84 649 199 786Q312 919 496 920Q610 920 692 870Q772 823 819 725V887H942V0H819ZM846 1294Q821 1204 770 1157T647 1110Q624 1110 614 1112Q594 1116 582 1120L502 1147Q486 1151 476 1153T444 1155Q411 1155 391 1141Q366 1125 352 1094H264Q287
1180 336 1227Q383 1272 463 1272Q486 1272 496 1270T522 1264L600 1237Q612 1233 633 1229Q643 1227 661 1227Q698 1227 721 1243Q746 1261 758 1294H846Z" />
<glyph unicode="&#xe4;" glyph-name="adieresis" horiz-adv-x="1107" d="M221 434Q221 264 299 170T520 76Q661 76 741 178Q821 278 821 457Q821 621 741 713Q659 807 522 807Q383 807 301 707Q221 608 221 434ZM819 0V162Q776 66 696 12Q618 -39 508 -39Q318
-39 201 92Q84 225 84 438Q84 649 199 786Q312 919 496 920Q610 920 692 870Q772 823 819 725V887H942V0H819ZM633 1147T633 1188T661 1257T731 1286Q770 1286 798 1258T827 1188Q827 1145 801 1119T731 1092T661 1118Q633 1147 633 1188ZM283 1188Q283 1229 311
1257T379 1286Q420 1286 448 1258T477 1188Q477 1149 449 1121T379 1092Q336 1092 310 1118T283 1188Z" />
<glyph unicode="&#xe5;" glyph-name="aring" horiz-adv-x="1107" d="M221 434Q221 264 299 170T520 76Q661 76 741 178Q821 278 821 457Q821 621 741 713Q659 807 522 807Q383 807 301 707Q221 608 221 434ZM819 0V162Q776 66 696 12Q618 -39 508 -39Q318 -39
201 92Q84 225 84 438Q84 649 199 786Q312 919 496 920Q610 920 692 870Q772 823 819 725V887H942V0H819ZM393 1221Q393 1166 432 1127T526 1087T620 1126T659 1221Q659 1278 621 1317T527 1356T432 1317T393 1221ZM291 1221Q291 1321 358 1388T526 1456T694 1389T762
1221T695 1053T526 985Q428 985 360 1053Q291 1123 291 1221Z" />
<glyph unicode="&#xe6;" glyph-name="ae" horiz-adv-x="1622" d="M1534 438H829Q835 262 913 170Q993 74 1124 74Q1224 74 1300 127Q1380 182 1423 285L1540 223Q1474 90 1370 25Q1268 -41 1126 -41Q999 -41 913 12Q825 67 764 180Q727 76 633 16Q543 -41 408
-41Q256 -41 164 39T72 246Q72 377 172 461Q268 543 434 543Q518 543 590 520Q658 500 711 455Q713 463 713 481V520Q713 671 645 741Q577 813 438 813Q360 813 287 795Q219 779 137 735L139 866Q217 895 291 907Q369 919 449 920Q584 920 676 870Q766 823 791
733Q840 821 926 870T1120 920Q1308 920 1421 795T1534 459V438ZM838 543H1389Q1379 668 1309 733Q1235 801 1112 801Q1003 801 926 729Q850 660 838 543ZM702 270Q702 344 635 391Q565 438 455 438Q340 438 272 387Q206 338 207 250Q207 164 268 119Q327 74 440
74Q555 74 628 129T702 270Z" />
<glyph unicode="&#xe7;" glyph-name="ccedilla" horiz-adv-x="933" d="M854 725Q795 766 723 788Q649 811 578 811Q416 811 315 705Q217 601 217 424Q217 270 319 168T578 66Q650 66 723 90Q793 113 868 166V31Q802 -6 725 -25Q645 -43 555 -43Q350 -43 221 90Q92
221 92 432Q92 649 227 784T580 920Q666 920 731 905Q792 891 856 860L854 725ZM334 -379V-309Q418 -327 479 -336Q525 -342 559 -342Q620 -342 654 -319Q685 -299 685 -254T650 -187T543 -164Q541 -164 535 -165T522 -166H502V0H563V-100H578Q682 -100 735 -139Q790
-180 791 -252Q791 -336 738 -375Q681 -416 576 -416Q519 -416 467 -408Q418 -399 334 -379Z" />
<glyph unicode="&#xe8;" glyph-name="egrave" horiz-adv-x="1017" d="M780 545Q772 664 698 733Q626 801 504 801Q393 801 318 732T229 545H780ZM926 440H221Q227 268 307 170T524 72Q620 72 696 125Q770 177 819 285L932 223Q864 90 766 25Q670 -38 524 -39Q329
-39 209 92T88 434Q88 653 207 786T520 920Q704 920 815 797T926 467V440ZM899 1030H805L522 1380H686L899 1030Z" />
<glyph unicode="&#xe9;" glyph-name="eacute" horiz-adv-x="1017" d="M780 545Q772 664 698 733Q626 801 504 801Q393 801 318 732T229 545H780ZM926 440H221Q227 268 307 170T524 72Q620 72 696 125Q770 177 819 285L932 223Q864 90 766 25Q670 -38 524 -39Q329
-39 209 92T88 434Q88 653 207 786T520 920Q704 920 815 797T926 467V440ZM633 1030L846 1380H1010L727 1030H633Z" />
<glyph unicode="&#xea;" glyph-name="ecircumflex" horiz-adv-x="1017" d="M780 545Q772 664 698 733Q626 801 504 801Q393 801 318 732T229 545H780ZM926 440H221Q227 268 307 170T524 72Q620 72 696 125Q770 177 819 285L932 223Q864 90 766 25Q670 -38 524
-39Q329 -39 209 92T88 434Q88 653 207 786T520 920Q704 920 815 797T926 467V440ZM479 1030L692 1380H838L1051 1030H959L766 1280L571 1030H479Z" />
<glyph unicode="&#xeb;" glyph-name="edieresis" horiz-adv-x="1017" d="M780 545Q772 664 698 733Q626 801 504 801Q393 801 318 732T229 545H780ZM926 440H221Q227 268 307 170T524 72Q620 72 696 125Q770 177 819 285L932 223Q864 90 766 25Q670 -38 524 -39Q329
-39 209 92T88 434Q88 653 207 786T520 920Q704 920 815 797T926 467V440ZM844 1147T844 1188T872 1257T942 1286Q981 1286 1009 1258T1038 1188Q1038 1145 1012 1119T942 1092T872 1118Q844 1147 844 1188ZM494 1188Q494 1229 522 1257T590 1286Q631 1286 659
1258T688 1188Q688 1149 660 1121T590 1092Q547 1092 521 1118T494 1188Z" />
<glyph unicode="&#xec;" glyph-name="igrave" horiz-adv-x="468" d="M172 0V887H299V0H172ZM369 1030H275L-8 1380H156L369 1030Z" />
<glyph unicode="&#xed;" glyph-name="iacute" horiz-adv-x="468" d="M172 0V887H299V0H172ZM103 1030L316 1380H480L197 1030H103Z" />
<glyph unicode="&#xee;" glyph-name="icircumflex" horiz-adv-x="468" d="M172 0V887H299V0H172ZM-51 1030L162 1380H308L521 1030H429L236 1280L41 1030H-51Z" />
<glyph unicode="&#xef;" glyph-name="idieresis" horiz-adv-x="468" d="M172 0V887H299V0H172ZM314 1147T314 1188T342 1257T412 1286Q451 1286 479 1258T508 1188Q508 1145 482 1119T412 1092T342 1118Q314 1147 314 1188ZM-36 1188Q-36 1229 -8 1257T60 1286Q101
1286 129 1258T158 1188Q158 1149 130 1121T60 1092Q17 1092 -9 1118T-36 1188Z" />
<glyph unicode="&#xf0;" glyph-name="eth" horiz-adv-x="1138" d="M567 76Q710 76 812 178T915 428T813 677T567 780Q422 780 319 678Q219 578 219 429T319 178Q422 76 567 76ZM893 741Q862 864 774 997T569 1233L256 1087L209 1169L485 1300Q448 1331 381 1376Q334
1409 242 1458L301 1548Q399 1493 477 1440Q547 1393 598 1352L940 1511L991 1427L684 1280Q868 1096 960 899T1053 496Q1053 252 920 107T567 -39Q472 -39 383 -2Q297 35 223 100Q155 165 119 248Q84 326 84 424Q84 516 121 602Q158 686 223 750Q293 816 377 852Q459
887 549 887Q643 887 725 852Q809 815 893 741Z" />
<glyph unicode="&#xf1;" glyph-name="ntilde" horiz-adv-x="1064" d="M164 0V887H281V750Q336 834 414 877Q494 920 594 920Q746 920 829 836T913 602V0H788V547Q788 680 733 745Q678 808 561 809Q422 809 354 725Q286 643 287 463V0H164ZM826 1294Q801 1204 750
1157T627 1110Q604 1110 594 1112Q574 1116 562 1120L482 1147Q466 1151 456 1153T424 1155Q391 1155 371 1141Q346 1125 332 1094H244Q267 1180 316 1227Q363 1272 443 1272Q466 1272 476 1270T502 1264L580 1237Q592 1233 613 1229Q623 1227 641 1227Q678 1227
701 1243Q726 1261 738 1294H826Z" />
<glyph unicode="&#xf2;" glyph-name="ograve" horiz-adv-x="1142" d="M571 76Q716 76 819 182Q919 284 920 440Q920 598 819 700Q717 804 572 804T324 700Q224 598 223 440Q223 284 324 182Q426 76 571 76ZM664 -39T568 -39T385 -2T227 106Q159 172 125 258Q90
346 90 442Q90 540 127 627Q166 717 229 780Q295 846 385 885Q467 920 567 920Q669 920 754 885Q844 848 911 780Q977 714 1016 625Q1053 539 1053 442Q1053 342 1018 260Q981 174 913 106Q841 34 754 -2Q664 -39 568 -39ZM704 1030H610L327 1380H491L704 1030Z"
/>
<glyph unicode="&#xf3;" glyph-name="oacute" horiz-adv-x="1142" d="M571 76Q716 76 819 182Q919 284 920 440Q920 598 819 700Q717 804 572 804T324 700Q224 598 223 440Q223 284 324 182Q426 76 571 76ZM664 -39T568 -39T385 -2T227 106Q159 172 125 258Q90
346 90 442Q90 540 127 627Q166 717 229 780Q295 846 385 885Q467 920 567 920Q669 920 754 885Q844 848 911 780Q977 714 1016 625Q1053 539 1053 442Q1053 342 1018 260Q981 174 913 106Q841 34 754 -2Q664 -39 568 -39ZM438 1030L651 1380H815L532 1030H438Z"
/>
<glyph unicode="&#xf4;" glyph-name="ocircumflex" horiz-adv-x="1142" d="M571 76Q716 76 819 182Q919 284 920 440Q920 598 819 700Q717 804 572 804T324 700Q224 598 223 440Q223 284 324 182Q426 76 571 76ZM664 -39T568 -39T385 -2T227 106Q159 172 125 258Q90
346 90 442Q90 540 127 627Q166 717 229 780Q295 846 385 885Q467 920 567 920Q669 920 754 885Q844 848 911 780Q977 714 1016 625Q1053 539 1053 442Q1053 342 1018 260Q981 174 913 106Q841 34 754 -2Q664 -39 568 -39ZM284 1030L497 1380H643L856 1030H764L571
1280L376 1030H284Z" />
<glyph unicode="&#xf5;" glyph-name="otilde" horiz-adv-x="1142" d="M571 76Q716 76 819 182Q919 284 920 440Q920 598 819 700Q717 804 572 804T324 700Q224 598 223 440Q223 284 324 182Q426 76 571 76ZM664 -39T568 -39T385 -2T227 106Q159 172 125 258Q90
346 90 442Q90 540 127 627Q166 717 229 780Q295 846 385 885Q467 920 567 920Q669 920 754 885Q844 848 911 780Q977 714 1016 625Q1053 539 1053 442Q1053 342 1018 260Q981 174 913 106Q841 34 754 -2Q664 -39 568 -39ZM862 1294Q837 1204 786 1157T663 1110Q640
1110 630 1112Q610 1116 598 1120L518 1147Q502 1151 492 1153T460 1155Q427 1155 407 1141Q382 1125 368 1094H280Q303 1180 352 1227Q399 1272 479 1272Q502 1272 512 1270T538 1264L616 1237Q628 1233 649 1229Q659 1227 677 1227Q714 1227 737 1243Q762 1261
774 1294H862Z" />
<glyph unicode="&#xf6;" glyph-name="odieresis" horiz-adv-x="1142" d="M571 76Q716 76 819 182Q919 284 920 440Q920 598 819 700Q717 804 572 804T324 700Q224 598 223 440Q223 284 324 182Q426 76 571 76ZM664 -39T568 -39T385 -2T227 106Q159 172 125 258Q90
346 90 442Q90 540 127 627Q166 717 229 780Q295 846 385 885Q467 920 567 920Q669 920 754 885Q844 848 911 780Q977 714 1016 625Q1053 539 1053 442Q1053 342 1018 260Q981 174 913 106Q841 34 754 -2Q664 -39 568 -39ZM649 1147T649 1188T677 1257T747 1286Q786
1286 814 1258T843 1188Q843 1145 817 1119T747 1092T677 1118Q649 1147 649 1188ZM299 1188Q299 1229 327 1257T395 1286Q436 1286 464 1258T493 1188Q493 1149 465 1121T395 1092Q352 1092 326 1118T299 1188Z" />
<glyph unicode="&#xf7;" glyph-name="divide" horiz-adv-x="1705" d="M811 365T854 365T924 336Q953 303 952 264Q952 223 924 195T854 166T785 194T756 264Q756 303 784 336Q811 365 854 365ZM1452 651V569H254V651H1452ZM854 1055Q895 1055 923 1026T952 956Q952
919 924 887Q897 856 854 856T784 885Q755 918 756 956Q756 997 784 1026T854 1055Z" />
<glyph unicode="&#xf8;" glyph-name="oslash" horiz-adv-x="1142" d="M147 -41L92 18L203 131Q145 205 117 279Q88 355 88 432Q88 637 227 780Q364 919 575 920Q661 920 733 893Q809 864 877 809L987 922L1049 864L936 754Q999 674 1024 604Q1053 524 1053 444Q1053
235 911 98Q772 -39 559 -39Q473 -39 406 -12Q330 19 264 74L147 -41ZM346 160Q391 123 451 98Q500 78 563 78Q717 78 817 182Q917 284 918 444Q918 510 901 557Q881 616 850 664L346 160ZM793 723Q752 762 696 784Q647 804 582 805Q424 805 324 703T223 434Q223
371 240 324Q258 271 293 221L793 723Z" />
<glyph unicode="&#xf9;" glyph-name="ugrave" horiz-adv-x="1077" d="M287 887V444Q287 241 344 160Q403 76 538 76T733 160T793 444V887H915V381Q915 176 819 68Q725 -38 541 -39Q355 -39 260 68Q164 177 164 381V887H287ZM674 1030H580L297 1380H461L674 1030Z" />
<glyph unicode="&#xfa;" glyph-name="uacute" horiz-adv-x="1077" d="M287 887V444Q287 241 344 160Q403 76 538 76T733 160T793 444V887H915V381Q915 176 819 68Q725 -38 541 -39Q355 -39 260 68Q164 177 164 381V887H287ZM408 1030L621 1380H785L502 1030H408Z" />
<glyph unicode="&#xfb;" glyph-name="ucircumflex" horiz-adv-x="1077" d="M287 887V444Q287 241 344 160Q403 76 538 76T733 160T793 444V887H915V381Q915 176 819 68Q725 -38 541 -39Q355 -39 260 68Q164 177 164 381V887H287ZM254 1030L467 1380H613L826 1030H734L541
1280L346 1030H254Z" />
<glyph unicode="&#xfc;" glyph-name="udieresis" horiz-adv-x="1077" d="M287 887V444Q287 241 344 160Q403 76 538 76T733 160T793 444V887H915V381Q915 176 819 68Q725 -38 541 -39Q355 -39 260 68Q164 177 164 381V887H287ZM619 1147T619 1188T647 1257T717
1286Q756 1286 784 1258T813 1188Q813 1145 787 1119T717 1092T647 1118Q619 1147 619 1188ZM269 1188Q269 1229 297 1257T365 1286Q406 1286 434 1258T463 1188Q463 1149 435 1121T365 1092Q322 1092 296 1118T269 1188Z" />
<glyph unicode="&#xfd;" glyph-name="yacute" horiz-adv-x="823" d="M43 887H174L428 193L662 887H793L334 -446H207L362 6L43 887ZM537 1030L750 1380H914L631 1030H537Z" />
<glyph unicode="&#xfe;" glyph-name="thorn" horiz-adv-x="1107" d="M883 438Q883 612 805 709Q725 807 588 807Q445 807 365 711T285 449Q285 280 371 178T600 76Q735 76 809 172Q883 266 883 438ZM283 164V-446H164V1550H283V721Q322 813 408 866Q492 919 600
920Q788 920 901 788Q1016 655 1016 440Q1016 219 906 90T606 -39Q500 -39 418 12Q334 66 283 164Z" />
<glyph unicode="&#xff;" glyph-name="ydieresis" horiz-adv-x="823" d="M43 887H174L428 193L662 887H793L334 -446H207L362 6L43 887ZM748 1147T748 1188T776 1257T846 1286Q885 1286 913 1258T942 1188Q942 1145 916 1119T846 1092T776 1118Q748 1147 748 1188ZM398
1188Q398 1229 426 1257T494 1286Q535 1286 563 1258T592 1188Q592 1149 564 1121T494 1092Q451 1092 425 1118T398 1188Z" />
<glyph unicode="&#x106;" glyph-name="Cacute" horiz-adv-x="1462" d="M1358 1196Q1256 1286 1135 1335Q1024 1380 895 1380Q612 1380 434 1200T256 731Q256 586 299 469Q340 356 432 264Q522 174 632 129T877 84Q1003 84 1122 127Q1239 170 1350 254V98Q1239
30 1122 -4Q1009 -39 883 -39Q721 -39 580 18Q428 79 330 178Q221 287 168 424Q113 565 113 731Q113 889 170 1036Q225 1179 332 1282Q434 1380 580 1440Q721 1497 883 1497Q1026 1497 1143 1458Q1266 1417 1360 1343L1358 1196ZM741 1608L954 1958H1118L835 1608H741Z"
/>
<glyph unicode="&#x107;" glyph-name="cacute" horiz-adv-x="933" d="M854 725Q795 766 723 788Q649 811 578 811Q416 811 315 705Q217 601 217 424Q217 270 319 168T578 66Q650 66 723 90Q793 113 868 166V31Q802 -6 725 -25Q645 -43 555 -43Q350 -43 221 90Q92
221 92 432Q92 649 227 784T580 920Q666 920 731 905Q792 891 856 860L854 725ZM428 1030L641 1380H805L522 1030H428Z" />
<glyph unicode="&#x10c;" glyph-name="Ccaron" horiz-adv-x="1462" d="M1358 1196Q1256 1286 1135 1335Q1024 1380 895 1380Q612 1380 434 1200T256 731Q256 586 299 469Q340 356 432 264Q522 174 632 129T877 84Q1003 84 1122 127Q1239 170 1350 254V98Q1239
30 1122 -4Q1009 -39 883 -39Q721 -39 580 18Q428 79 330 178Q221 287 168 424Q113 565 113 731Q113 889 170 1036Q225 1179 332 1282Q434 1380 580 1440Q721 1497 883 1497Q1026 1497 1143 1458Q1266 1417 1360 1343L1358 1196ZM1159 1958L946 1608H800L587 1958H679L874
1708L1067 1958H1159Z" />
<glyph unicode="&#x10d;" glyph-name="ccaron" horiz-adv-x="933" d="M854 725Q795 766 723 788Q649 811 578 811Q416 811 315 705Q217 601 217 424Q217 270 319 168T578 66Q650 66 723 90Q793 113 868 166V31Q802 -6 725 -25Q645 -43 555 -43Q350 -43 221 90Q92
221 92 432Q92 649 227 784T580 920Q666 920 731 905Q792 891 856 860L854 725ZM846 1380L633 1030H487L274 1380H366L561 1130L754 1380H846Z" />
<glyph unicode="&#x111;" glyph-name="" horiz-adv-x="1114" d="M225 434Q225 264 303 170T524 76Q663 76 743 178Q823 278 823 457Q823 621 743 713Q661 807 526 807Q389 807 307 707T225 434ZM821 0V162Q778 66 698 12Q620 -39 512 -39Q322 -39 205 92Q88 225
88 438T203 784Q320 919 500 920Q611 920 694 870Q774 823 821 725V1161H461V1262H821V1550H946V1262H1116V1161H946V0H821Z" />
<glyph unicode="&#x11e;" glyph-name="Gbreve" horiz-adv-x="1671" d="M1382 1096Q1294 1233 1163 1304T870 1376Q598 1376 426 1192Q256 1010 256 715Q256 584 301 469Q346 352 434 262Q524 172 631 129Q744 84 870 84Q1114 84 1270 229Q1428 376 1430 608H924V723H1575V707Q1575
357 1384 160Q1191 -39 858 -39T319 172Q112 385 113 729Q113 885 166 1028Q217 1167 315 1272Q424 1387 555 1442Q688 1497 852 1497Q1075 1497 1235 1417Q1391 1339 1479 1180L1382 1096ZM564 1862H643Q655 1794 701 1764Q748 1733 838 1733T975 1764Q1018 1793
1031 1862H1112Q1100 1739 1035 1680Q972 1623 839 1623T641 1680Q576 1739 564 1862Z" />
<glyph unicode="&#x11f;" glyph-name="gbreve" horiz-adv-x="1107" d="M944 887V154Q944 -10 934 -113Q926 -203 903 -250Q857 -348 762 -397T522 -446Q346 -446 246 -377Q150 -309 127 -170H281Q295 -252 360 -295Q421 -336 532 -336Q612 -336 680 -307Q745 -279
778 -227Q798 -194 809 -150Q819 -103 819 -16V31V164Q780 70 694 14Q612 -39 500 -39Q312 -39 201 90T90 440Q90 655 205 788Q318 919 506 920Q615 920 696 866Q782 811 819 721V887H944ZM520 807Q383 807 303 709T223 438T299 172Q377 76 508 76Q649 76 735 176Q821
278 821 449Q821 618 741 713Q661 807 520 807ZM281 1284H360Q372 1216 418 1186Q465 1155 555 1155T692 1186Q735 1215 748 1284H829Q817 1161 752 1102Q689 1045 556 1045T358 1102Q293 1161 281 1284Z" />
<glyph unicode="&#x130;" glyph-name="Idot" horiz-adv-x="497" d="M182 0V1464H315V0H182ZM148 1766Q148 1809 178 1839T250 1870T321 1840T352 1766Q352 1725 322 1694T250 1663T179 1694T148 1766Z" />
<glyph unicode="&#x131;" glyph-name="dotlessi" horiz-adv-x="468" d="M172 0V887H299V0H172Z" />
<glyph unicode="&#x141;" glyph-name="Lslash" horiz-adv-x="854" d="M193 0V672L-2 537L-68 616L193 801V1464H326V872L563 1038L627 952L326 743V125H827V0H193Z" />
<glyph unicode="&#x142;" glyph-name="lslash" horiz-adv-x="499" d="M313 831L465 938L520 856L313 709V0H186V635L37 526L-20 608L186 756V1550H313V831Z" />
<glyph unicode="&#x152;" glyph-name="OE" horiz-adv-x="2318" d="M2181 1464V1339H1606V881H2181V756H1606V125H2181V0H1483V311Q1383 141 1227 55Q1065 -35 866 -35Q774 -35 668 -8Q570 17 487 68Q303 177 209 348Q113 522 113 733Q113 885 170 1028Q225 1167
332 1274Q445 1387 580 1442Q719 1499 879 1499Q1078 1499 1229 1413Q1385 1323 1483 1161V1464H2181ZM242 731Q242 604 289 485Q336 364 426 272Q514 180 625 133Q734 86 862 86Q989 86 1102 133Q1208 178 1298 270Q1384 362 1432 483Q1479 606 1479 731Q1479
872 1436 985Q1391 1102 1307 1190Q1211 1288 1106 1331Q989 1378 862 1378Q739 1378 627 1331Q516 1284 426 1192T289 979Q242 860 242 731Z" />
<glyph unicode="&#x153;" glyph-name="oe" horiz-adv-x="1839" d="M573 76Q718 76 821 182Q921 284 922 440Q922 598 821 700Q721 804 574 804T326 700Q226 598 225 440Q225 284 326 182Q428 76 573 76ZM1053 545H1604Q1594 674 1524 737Q1450 805 1327 805Q1216
805 1139 732T1053 545ZM1749 442H1044Q1044 276 1126 176T1337 76Q1437 76 1516 129Q1593 181 1638 289L1755 225Q1685 90 1585 27Q1483 -39 1352 -39Q1217 -39 1115 26T975 199Q916 82 811 23Q705 -38 569 -39Q467 -39 385 -4Q299 33 231 100Q165 166 127 256Q92
338 92 442Q92 542 127 625Q166 715 231 780Q299 848 385 885T563 922Q704 922 811 862Q913 805 975 688Q1016 801 1112 860Q1210 921 1339 922Q1527 922 1638 797T1749 463V442Z" />
<glyph unicode="&#x15e;" glyph-name="Scedilla" horiz-adv-x="1019" d="M70 246L184 307Q215 196 295 139Q377 80 483 80Q624 80 700 162Q778 246 778 389Q778 493 725 565Q674 633 500 727Q285 842 207 934Q133 1024 133 1147Q133 1303 237 1401T512 1499Q621
1499 705 1452Q781 1409 836 1313L733 1251Q704 1312 643 1348Q586 1381 504 1380Q395 1380 332 1317T268 1145Q268 989 522 858Q567 833 592 821Q778 717 841 627T905 389Q905 194 791 76Q678 -39 477 -39Q334 -39 231 33Q127 105 70 246ZM555 -379V-309Q639 -327
700 -336Q746 -342 780 -342Q841 -342 875 -319Q906 -299 906 -254T871 -187T764 -164Q762 -164 756 -165T743 -166H723V0H784V-100H799Q903 -100 956 -139Q1011 -180 1012 -252Q1012 -336 959 -375Q902 -416 797 -416Q740 -416 688 -408Q639 -399 555 -379Z" />
<glyph unicode="&#x15f;" glyph-name="scedilla" horiz-adv-x="780" d="M63 158L180 225Q209 149 264 113T399 76Q477 76 522 115Q569 156 569 221Q569 321 387 393Q375 397 358 406Q219 461 162 520Q107 577 106 664Q106 777 186 850Q264 922 393 922Q499 922
578 874Q654 829 688 741L575 678Q555 741 506 774Q459 807 385 807Q322 807 279 770Q238 735 238 676Q238 623 279 586Q318 549 449 506Q601 453 645 395Q696 332 696 229Q696 110 608 35Q522 -39 375 -39Q262 -39 180 12Q100 64 63 158ZM436 -379V-309Q520 -327
581 -336Q627 -342 661 -342Q722 -342 756 -319Q787 -299 787 -254T752 -187T645 -164Q643 -164 637 -165T624 -166H604V0H665V-100H680Q784 -100 837 -139Q892 -180 893 -252Q893 -336 840 -375Q783 -416 678 -416Q621 -416 569 -408Q520 -399 436 -379Z" />
<glyph unicode="&#x160;" glyph-name="Scaron" horiz-adv-x="1019" d="M70 246L184 307Q215 196 295 139Q377 80 483 80Q624 80 700 162Q778 246 778 389Q778 493 725 565Q674 633 500 727Q285 842 207 934Q133 1024 133 1147Q133 1303 237 1401T512 1499Q621
1499 705 1452Q781 1409 836 1313L733 1251Q704 1312 643 1348Q586 1381 504 1380Q395 1380 332 1317T268 1145Q268 989 522 858Q567 833 592 821Q778 717 841 627T905 389Q905 194 791 76Q678 -39 477 -39Q334 -39 231 33Q127 105 70 246ZM795 1958L582 1608H436L223
1958H315L510 1708L703 1958H795Z" />
<glyph unicode="&#x161;" glyph-name="scaron" horiz-adv-x="780" d="M63 158L180 225Q209 149 264 113T399 76Q477 76 522 115Q569 156 569 221Q569 321 387 393Q375 397 358 406Q219 461 162 520Q107 577 106 664Q106 777 186 850Q264 922 393 922Q499 922 578
874Q654 829 688 741L575 678Q555 741 506 774Q459 807 385 807Q322 807 279 770Q238 735 238 676Q238 623 279 586Q318 549 449 506Q601 453 645 395Q696 332 696 229Q696 110 608 35Q522 -39 375 -39Q262 -39 180 12Q100 64 63 158ZM932 1380L719 1030H573L360
1380H452L647 1130L840 1380H932Z" />
<glyph unicode="&#x178;" glyph-name="Ydieresis" horiz-adv-x="1116" d="M496 0V674L10 1464H170L563 793L958 1464H1110L629 674V0H496ZM637 1725T637 1766T665 1835T735 1864Q774 1864 802 1836T831 1766Q831 1723 805 1697T735 1670T665 1696Q637 1725 637
1766ZM287 1766Q287 1807 315 1835T383 1864Q424 1864 452 1836T481 1766Q481 1727 453 1699T383 1670Q340 1670 314 1696T287 1766Z" />
<glyph unicode="&#x17d;" glyph-name="Zcaron" horiz-adv-x="1146" d="M25 0L895 1343H152V1464H1122L256 123H1034V0H25ZM858 1958L645 1608H499L286 1958H378L573 1708L766 1958H858Z" />
<glyph unicode="&#x17e;" glyph-name="zcaron" horiz-adv-x="778" d="M23 0L518 776H57V887H731L240 111H745V0H23ZM932 1380L719 1030H573L360 1380H452L647 1130L840 1380H932Z" />
<glyph unicode="&#x192;" glyph-name="florin" horiz-adv-x="1179" d="M659 825L571 25Q540 -256 477 -352Q414 -450 279 -451Q265 -451 236 -446Q218 -444 186 -436L217 -317Q233 -325 243 -327T279 -330Q350 -330 383 -262Q416 -196 446 86L528 825H365L375
920H539L559 1102Q579 1307 649 1395Q715 1479 850 1479Q887 1479 918 1473Q947 1467 977 1450L956 1343Q942 1347 897 1360Q872 1366 850 1366Q774 1366 741 1317Q710 1272 688 1094L670 920H864L858 825H659Z" />
<glyph unicode="&#x2c6;" glyph-name="circumflex" horiz-adv-x="1024" d="M225 1030L438 1380H584L797 1030H705L512 1280L317 1030H225Z" />
<glyph unicode="&#x2c7;" glyph-name="caron" horiz-adv-x="1024" d="M797 1380L584 1030H438L225 1380H317L512 1130L705 1380H797Z" />
<glyph unicode="&#x2d8;" glyph-name="breve" horiz-adv-x="1024" d="M238 1284H317Q329 1216 375 1186Q422 1155 512 1155T649 1186Q692 1215 705 1284H786Q774 1161 709 1102Q646 1045 513 1045T315 1102Q250 1161 238 1284Z" />
<glyph unicode="&#x2d9;" glyph-name="dotaccent" horiz-adv-x="1024" d="M410 1188Q410 1231 440 1261T512 1292T583 1262T614 1188Q614 1147 584 1116T512 1085T441 1116T410 1188Z" />
<glyph unicode="&#x2da;" glyph-name="ring" horiz-adv-x="1024" d="M371 1260Q371 1203 412 1157Q451 1116 512 1116T614 1157T655 1259T614 1360Q569 1401 512 1401Q453 1401 412 1360T371 1260ZM264 1155T264 1259T336 1435T512 1507T688 1436T760 1260T688
1084T512 1012T336 1083Z" />
<glyph unicode="&#x2db;" glyph-name="ogonek" horiz-adv-x="1024" d="M573 0Q497 -66 465 -123Q430 -182 430 -236Q430 -279 453 -301Q473 -321 530 -322H614V-434H535Q424 -434 367 -393Q314 -354 313 -270Q313 -209 354 -145Q391 -88 502 0H573Z" />
<glyph unicode="&#x2dc;" glyph-name="tilde" horiz-adv-x="1024" d="M803 1294Q778 1204 727 1157T604 1110Q581 1110 571 1112Q551 1116 539 1120L459 1147Q443 1151 433 1153T401 1155Q368 1155 348 1141Q323 1125 309 1094H221Q244 1180 293 1227Q340 1272
420 1272Q443 1272 453 1270T479 1264L557 1237Q569 1233 590 1229Q600 1227 618 1227Q655 1227 678 1243Q703 1261 715 1294H803Z" />
<glyph unicode="&#x2dd;" glyph-name="hungarumlaut" horiz-adv-x="1024" d="M580 1030L748 1380H903L664 1030H580ZM322 1030L469 1380H627L406 1030H322Z" />
<glyph unicode="&#x3a9;" glyph-name="Omega" horiz-adv-x="1583" d="M1452 121V0H879V102Q1096 235 1206 410Q1317 582 1317 786Q1317 1058 1171 1225Q1024 1393 793 1393Q564 1393 416 1225T268 786Q268 581 379 410Q490 236 707 102V0H135V121H489Q307 252
217 416Q129 578 129 786Q129 1101 317 1309Q503 1514 792 1514T1268 1309Q1456 1102 1456 786Q1456 577 1368 416Q1278 252 1096 121H1452Z" />
<glyph unicode="&#x3c0;" glyph-name="pi" horiz-adv-x="1153" d="M1102 958H920L801 393Q787 340 780 283Q772 217 772 205Q772 148 796 123T881 98Q916 98 930 100Q959 104 973 109L948 0Q921 -8 897 -12Q868 -16 852 -16Q758 -16 707 39Q654 96 653 186Q653
245 664 309Q676 391 709 537L797 958H416L213 0H92L293 958H254Q201 958 168 926Q139 897 127 825H6Q31 960 90 1011T297 1063H1126L1102 958Z" />
<glyph unicode="&#x2013;" glyph-name="endash" horiz-adv-x="1024" d="M0 481H1024V401H0V481Z" />
<glyph unicode="&#x2014;" glyph-name="emdash" horiz-adv-x="2048" d="M0 401V481H2048V401H0Z" />
<glyph unicode="&#x2018;" glyph-name="quoteleft" horiz-adv-x="589" d="M467 1466L272 926L123 993L385 1497L467 1466Z" />
<glyph unicode="&#x2019;" glyph-name="quoteright" horiz-adv-x="589" d="M123 958L317 1497L467 1432L205 926L123 958Z" />
<glyph unicode="&#x201a;" glyph-name="quotesinglbase" horiz-adv-x="589" d="M324 254L469 193L205 -322L121 -283L324 254Z" />
<glyph unicode="&#x201c;" glyph-name="quotedblleft" horiz-adv-x="876" d="M772 1466L578 926L428 993L690 1497L772 1466ZM449 1466L254 926L106 993L367 1497L449 1466Z" />
<glyph unicode="&#x201d;" glyph-name="quotedblright" horiz-adv-x="876" d="M428 958L623 1497L772 1432L510 926L428 958ZM106 958L299 1497L449 1432L186 926L106 958Z" />
<glyph unicode="&#x201e;" glyph-name="quotedblbase" horiz-adv-x="876" d="M428 -287L623 254L772 186L510 -319L428 -287ZM106 -287L299 254L449 186L186 -319L106 -287Z" />
<glyph unicode="&#x2020;" glyph-name="dagger" horiz-adv-x="1040" d="M461 -446V774H100V889H461V1464H584V889H944V774H584V-446H461Z" />
<glyph unicode="&#x2021;" glyph-name="daggerdbl" horiz-adv-x="1040" d="M459 -446V39H100V152H459V872H100V985H459V1464H582V985H944V872H582V152H944V39H582V-446H459Z" />
<glyph unicode="&#x2022;" glyph-name="bullet" horiz-adv-x="1206" d="M307 762Q307 885 393 971T604 1057Q727 1057 813 971T899 762Q899 641 811 553T602 465T393 553Q307 639 307 762Z" />
<glyph unicode="&#x2026;" glyph-name="ellipsis" horiz-adv-x="2048" d="M240 84Q240 125 270 155T342 186T413 156T444 84T414 13T342 -18T271 12T240 84ZM922 84Q922 125 952 155T1024 186T1095 156T1126 84T1096 13T1024 -18T953 12T922 84ZM1606 84Q1606
125 1636 155T1708 186T1779 156T1810 84T1780 13T1708 -18T1637 12T1606 84Z" />
<glyph unicode="&#x2030;" glyph-name="perthousand" horiz-adv-x="2203" d="M1673 336Q1673 199 1718 127Q1765 53 1849 53Q1932 53 1978 127Q2023 199 2023 336Q2023 474 1980 545Q1937 617 1849 616Q1765 616 1718 543Q1673 471 1673 336ZM2142 334Q2142 160
2064 59Q1987 -39 1849 -39Q1708 -39 1632 59Q1554 159 1554 334Q1554 510 1632 610Q1708 708 1849 709Q1987 709 2064 610Q2142 510 2142 334ZM965 336Q965 203 1010 125Q1051 53 1139 53Q1225 53 1270 127Q1315 199 1315 336Q1315 475 1270 545Q1223 617 1139
616Q1053 616 1010 545Q965 471 965 336ZM1434 334Q1434 160 1356 59Q1278 -39 1139 -39Q1001 -39 924 59Q846 159 846 334Q846 510 924 610Q1001 708 1139 709Q1278 709 1356 610Q1434 510 1434 334ZM180 1106Q180 973 225 895Q266 823 354 823Q438 823 485 897Q530
969 530 1106Q530 1241 485 1315Q442 1387 354 1386Q272 1386 225 1315Q180 1245 180 1106ZM649 1104Q649 928 571 827Q495 729 354 729Q216 729 139 827Q61 927 61 1103T139 1380Q216 1478 354 1479Q495 1479 571 1380Q649 1280 649 1104ZM270 -39L1110 1479H1219L377
-39H270Z" />
<glyph unicode="&#x2039;" glyph-name="guilsinglleft" horiz-adv-x="421" d="M295 51L43 436L287 831L373 780L164 434L379 102L295 51Z" />
<glyph unicode="&#x203a;" glyph-name="guilsinglright" horiz-adv-x="421" d="M125 51L43 102L258 434L47 780L135 831L379 436L125 51Z" />
<glyph unicode="&#x20a3;" glyph-name="franc" horiz-adv-x="1669" d="M182 0V1464H907V1339H315V881H885V756H315V0H182ZM1313 709Q1381 824 1446 872Q1507 919 1599 920Q1632 920 1651 915Q1688 907 1704 901L1665 784Q1636 792 1622 795Q1593 799 1581 799Q1470
799 1391 694Q1313 592 1313 436V0H1190V887H1313V709Z" />
<glyph unicode="&#x20ac;" glyph-name="Euro" horiz-adv-x="1179" d="M1108 250L1104 98Q1030 35 932 -2Q836 -39 743 -39Q520 -39 362 119Q208 273 168 549H4L25 647H158Q158 651 157 659T156 674V719V756Q156 764 160 809H4L25 909H172Q219 1171 373 1323Q533
1479 743 1479Q852 1479 938 1440Q1032 1397 1102 1325V1176Q1022 1268 934 1315Q850 1360 754 1360Q580 1360 461 1241Q344 1124 303 909H954L926 809H291Q287 764 287 756V719V674Q287 668 288 660T289 647H877L846 549H299Q332 334 453 205Q570 80 739 80Q833
80 933 125T1108 250Z" />
<glyph unicode="&#x2122;" glyph-name="trademark" horiz-adv-x="1705" d="M926 1454L1100 1014L1262 1454H1364V924H1305V1403L1124 924H1075L885 1403V924H825V1454H926ZM694 1454V1403H520V924H453V1403H274V1454H694Z" />
<glyph unicode="&#x2202;" glyph-name="partialdiff" horiz-adv-x="1024" d="M750 578Q758 625 766 723Q772 799 772 883Q772 1059 733 1149Q696 1237 618 1237Q573 1237 518 1164T410 1090Q381 1090 362 1108Q342 1128 342 1155Q342 1214 403 1257T551 1300Q709
1300 805 1153Q899 1008 899 752Q899 414 768 195Q635 -26 444 -27Q305 -27 219 78Q135 180 135 358Q135 534 242 655Q350 778 500 778Q598 778 659 729Q717 682 750 578ZM713 459Q713 584 666 649T528 715Q411 715 338 590Q264 463 264 260Q264 143 311 80Q356
19 449 18Q566 18 639 143Q713 271 713 459Z" />
<glyph unicode="&#x2206;" glyph-name="uni2206" horiz-adv-x="1333" d="M1155 121L668 1354L178 121H1155ZM754 1473L1346 0H-12L582 1473H754Z" />
<glyph unicode="&#x220f;" glyph-name="product" horiz-adv-x="1490" d="M164 1473H1327V-393H1192V1350H299V-393H164V1473Z" />
<glyph unicode="&#x2211;" glyph-name="summation" horiz-adv-x="1288" d="M45 1473H1253V1350H215L936 563L176 -272H1253V-393H10V-266L762 563L45 1350V1473Z" />
<glyph unicode="&#x2212;" glyph-name="minus" horiz-adv-x="1705" d="M1452 651V569H254V651H1452Z" />
<glyph unicode="&#x2215;" glyph-name="uni2215" horiz-adv-x="339" d="M-342 -39L575 1479H682L-233 -39H-342Z" />
<glyph unicode="&#x2219;" glyph-name="uni2219" horiz-adv-x="589" d="M193 719Q193 760 223 790T295 821T366 791T397 719Q397 676 367 645Q338 616 295 616T223 645Q193 676 193 719Z" />
<glyph unicode="&#x221a;" glyph-name="radical" horiz-adv-x="1263" d="M1264 1626V1565H1135L539 -41H508L178 866L68 827L53 877L283 956L561 197L1092 1626H1264Z" />
<glyph unicode="&#x221e;" glyph-name="infinity" horiz-adv-x="1705" d="M889 557Q942 457 1014 403Q1084 352 1176 352Q1285 352 1352 430Q1422 510 1421 629Q1421 750 1358 825Q1292 903 1198 903Q1112 903 1041 825T889 557ZM819 670Q767 771 696 823Q626
874 532 874Q423 874 356 797Q286 717 286 598T350 403Q416 325 510 326Q598 326 668 401Q739 480 819 670ZM836 713Q902 852 981 919T1159 987Q1290 987 1378 881Q1468 772 1468 616Q1468 450 1389 350Q1309 248 1178 248Q1083 248 1012 309Q940 372 870 510Q800
375 721 307Q643 241 549 242Q416 242 328 348Q238 457 238 612Q238 778 317 879Q397 981 528 981Q628 981 700 918T836 713Z" />
<glyph unicode="&#x222b;" glyph-name="integral'" horiz-adv-x="946" d="M401 578Q401 1078 487 1311Q573 1547 756 1546Q822 1546 862 1512T903 1421Q903 1378 874 1350Q847 1323 801 1323Q725 1323 700 1386Q675 1452 666 1452Q598 1452 573 1292Q546 1118
547 606Q547 96 461 -137T193 -371Q132 -371 86 -336Q45 -303 45 -252Q45 -207 74 -174Q101 -145 150 -145Q185 -145 207 -158Q223 -168 246 -201Q256 -217 258 -246Q261 -277 283 -276Q351 -276 375 -111Q401 70 401 578Z" />
<glyph unicode="&#x2248;" glyph-name="approxequal" horiz-adv-x="1705" d="M1530 485Q1422 411 1327 375T1143 338Q1037 338 848 408Q655 480 565 479Q477 479 393 444Q307 409 178 319V412Q274 480 379 520Q475 557 565 557Q671 557 860 488T1143 418Q1231
418 1315 453Q1401 488 1530 578V485ZM1530 809Q1434 741 1329 700Q1233 663 1143 664Q1037 664 848 733T565 803Q477 803 393 768Q307 733 178 643V735Q286 809 381 846T565 883Q667 883 860 811Q1048 741 1143 741Q1229 741 1311 776Q1395 813 1530 903V809Z"
/>
<glyph unicode="&#x2260;" glyph-name="notequal" horiz-adv-x="1705" d="M1280 1108L1063 831H1452V752H1012L793 469H1452V387H741L487 63L426 111L641 387H254V469H690L911 752H254V831H963L1217 1157L1280 1108Z" />
<glyph unicode="&#x2264;" glyph-name="lessequal" horiz-adv-x="1705" d="M1442 129V49H264V129H1442ZM1442 1083L399 733L1442 381V293L264 698V768L1442 1171V1083Z" />
<glyph unicode="&#x2265;" glyph-name="greaterequal" horiz-adv-x="1705" d="M1442 129V49H264V129H1442ZM1442 768V698L264 293V381L1307 733L264 1083V1171L1442 768Z" />
<glyph unicode="&#x25ca;" glyph-name="lozenge" horiz-adv-x="1011" d="M506 1409L121 592L506 -233L891 592L506 1409ZM506 1653L1006 592L506 -477L6 592L506 1653Z" />
<glyph unicode="&#xf000;" glyph-name="uniF000" horiz-adv-x="1617" d="M836 1217Q836 1219 835 1223T834 1231V1253Q834 1376 930 1483Q1028 1589 1165 1614Q1165 1612 1166 1604T1167 1591V1552Q1167 1421 1063 1317Q961 1215 860 1214H852H844L840 1215L836
1217ZM1505 403Q1390 153 1300 61Q1208 -35 1096 -35Q1045 -35 965 -2T842 31Q795 31 711 -2T584 -35Q519 -35 455 8Q392 51 326 141Q220 288 168 436Q113 593 113 737Q113 956 237 1093T561 1231Q629 1231 717 1196Q801 1163 840 1163Q873 1163 961 1198T1114
1233Q1227 1233 1313 1194Q1395 1157 1473 1069Q1371 1003 1322 924T1272 741Q1272 624 1331 541Q1392 454 1505 403Z" />
<glyph unicode="&#xf001;" glyph-name="uniF001" horiz-adv-x="966" d="M637 1192T637 1233T663 1300T731 1327Q770 1327 797 1300Q826 1271 825 1233Q825 1192 799 1166T731 1139T664 1165ZM668 0V887H795V0H668ZM193 0V782H27V887H193V1143Q193 1405 244 1489Q293
1569 426 1569Q459 1569 489 1563Q526 1555 545 1548L522 1440Q499 1452 475 1458Q455 1464 434 1464Q368 1464 342 1413T315 1223V887H510V782H315V0H193Z" />
<glyph unicode="&#xf002;" glyph-name="uniF002" horiz-adv-x="976" d="M678 0V1550H803V0H678ZM193 0V782H27V887H193V1143Q193 1405 244 1489Q293 1569 426 1569Q459 1569 489 1563Q526 1555 545 1548L522 1440Q499 1452 475 1458Q455 1464 434 1464Q368 1464
342 1413T315 1223V887H510V782H315V0H193Z" />
</font>
</defs>
</svg>
